<svg width="319" height="160" viewBox="0 0 319 160" fill="none" xmlns="http://www.w3.org/2000/svg">
<path d="M159.381 0C247.273 0 318.762 71.489 318.762 159.381H301.964C301.964 121.566 286.942 85.2992 260.202 58.5598C233.463 31.8203 197.196 16.7982 159.381 16.7982C121.566 16.7982 85.2992 31.8203 58.5598 58.5598C31.8204 85.2992 16.7984 121.566 16.7984 159.381H0C0 71.522 71.5001 0 159.381 0Z" fill="white"/>
<path d="M204.253 89.6316C222.752 89.652 240.488 97.012 253.565 110.096C266.643 123.18 273.995 140.919 274.006 159.418H267.546C267.546 142.634 260.879 126.538 249.011 114.671C237.144 102.803 221.048 96.1356 204.264 96.1356C187.481 96.1356 171.385 102.803 159.517 114.671C147.649 126.538 140.982 142.634 140.982 159.418H134.522C134.534 140.922 141.882 123.187 154.955 110.104C168.028 97.0204 185.758 89.6578 204.253 89.6316Z" fill="white"/>
<path d="M204.256 81.1797C224.995 81.203 244.877 89.454 259.539 104.122C274.2 118.79 282.443 138.675 282.458 159.414H275.998C275.998 140.384 268.438 122.134 254.982 108.678C241.526 95.2213 223.275 87.6616 204.245 87.6616C185.215 87.6616 166.964 95.2213 153.508 108.678C140.052 122.134 132.492 140.384 132.492 159.414H126.032C126.044 138.671 134.289 118.78 148.956 104.111C163.623 89.4417 183.512 81.1942 204.256 81.1797Z" fill="white"/>
<path d="M189.149 114.672C201.007 114.683 212.376 119.401 220.758 127.79C229.14 136.178 233.85 147.55 233.853 159.409H225.064C225.147 154.643 224.28 149.908 222.514 145.481C220.748 141.054 218.118 137.023 214.777 133.624C211.437 130.224 207.452 127.524 203.057 125.68C198.661 123.837 193.943 122.888 189.176 122.888C184.41 122.888 179.691 123.837 175.296 125.68C170.9 127.524 166.916 130.224 163.575 133.624C160.234 137.023 157.604 141.054 155.838 145.481C154.072 149.908 153.205 154.643 153.289 159.409H144.5C144.503 147.56 149.205 136.196 157.575 127.809C165.945 119.422 177.3 114.698 189.149 114.672Z" fill="white"/>
</svg>
