<svg width="494" height="270" viewBox="0 0 494 270" fill="none" xmlns="http://www.w3.org/2000/svg">
<rect x="202.5" y="4.5" width="255.003" height="215.567" fill="#F8CEEE" stroke="#000D26"/>
<rect x="217.482" y="15.1692" width="225.038" height="159.969" fill="#8E3AE2" stroke="#000D26"/>
<path d="M310.037 227.805C311.67 223.12 316.088 219.981 321.05 219.981H339.652C344.692 219.981 349.161 223.218 350.733 228.006L356.864 246.683C359.34 254.225 353.722 261.983 345.784 261.983H314.541C306.514 261.983 300.887 254.063 303.528 246.483L310.037 227.805Z" fill="#8E3AE2" stroke="#000D26"/>
<rect x="271.862" y="250.564" width="116.277" height="18.1908" rx="9.09542" fill="#51DA7F" stroke="#000D26"/>
<path d="M418.661 120.879C399.568 68.6182 345.502 52.273 316.523 59.4482L326.4 83.5654C344.428 78.685 384.27 82.751 405.876 135.503C424.973 182.129 472.438 186.471 493.023 178.666L484.462 157.764C484.462 157.764 437.755 173.139 418.661 120.879Z" fill="#26F383" stroke="#000D26"/>
<path d="M407.483 134.844C388.389 82.5835 334.323 66.2383 305.344 73.4136L315.222 97.5307C333.25 92.6503 373.092 96.7163 394.697 149.468C413.794 196.095 461.259 200.436 481.844 192.631L473.283 171.73C473.283 171.73 426.577 187.104 407.483 134.844Z" fill="#000D26" stroke="#000D26"/>
<rect x="431.642" y="92.5916" width="13.2664" height="68.1239" rx="6.63318" transform="rotate(180 431.642 92.5916)" fill="white" stroke="#000D26"/>
<path d="M287.177 125.299C277.787 125.29 267.211 120.881 255.994 114.143C242.823 106.232 228.642 95.0284 214.276 83.6793C213.281 82.8928 212.284 82.1057 211.287 81.319C195.887 69.1649 180.337 57.0911 165.586 48.8739C150.821 40.6485 136.968 36.3528 124.924 39.5896C100.444 46.1689 60.4922 56.9477 32.4089 64.5366C27.2316 65.9356 22.4576 67.2262 18.2585 68.3621C28.4381 68.151 40.1811 72.2324 52.6112 78.6509C68.2102 86.7056 85.0145 98.508 101.372 110.4C104.173 112.437 106.962 114.476 109.729 116.5C123.131 126.302 136.034 135.739 147.53 142.759C154.464 146.993 160.863 150.335 166.533 152.345C172.212 154.358 177.097 155.014 181.034 153.956C197.353 149.57 236.305 139.055 265.799 131.081C273.846 128.906 281.19 126.92 287.177 125.299Z" fill="#FFDE68" stroke="#000D26"/>
</svg>
