<svg width="198" height="101" viewBox="0 0 198 101" fill="none" xmlns="http://www.w3.org/2000/svg">
<path d="M115.393 44.1307H112.183C112.133 44.1307 112.093 44.1715 112.093 44.2213V59.7168C112.093 59.7666 112.133 59.8074 112.183 59.8074H115.393C115.443 59.8074 115.483 59.7666 115.483 59.7168V44.2258C115.483 44.1715 115.443 44.1307 115.393 44.1307Z" fill="#141414"/>
<path d="M90.6822 44.1262H87.5951C87.5226 44.1262 87.4501 44.167 87.4138 44.2303L82.9259 51.994L78.429 44.2303C78.3927 44.167 78.3248 44.1262 78.2477 44.1262H75.1787C75.0201 44.1262 74.9158 44.2982 74.9974 44.4386L81.1399 55.0541C81.2668 55.276 81.3348 55.5295 81.3348 55.7875V59.5901C81.3348 59.7033 81.43 59.7983 81.5433 59.7983H84.3131C84.4264 59.7983 84.5216 59.7033 84.5216 59.5901V55.7875C84.5216 55.5295 84.5896 55.276 84.7166 55.0541L90.8636 44.4386C90.9452 44.2982 90.8409 44.1262 90.6822 44.1262Z" fill="#141414"/>
<path d="M73.438 56.6295H67.9302C67.3545 56.6295 66.8876 56.1632 66.8876 55.5883V44.339C66.8876 44.2258 66.7924 44.1307 66.679 44.1307H63.7007C63.5874 44.1307 63.4922 44.2258 63.4922 44.339V56.6838C63.4922 58.4086 64.8929 59.8074 66.6201 59.8074H73.4335C73.5468 59.8074 73.642 59.7123 73.642 59.5991V56.8332C73.6466 56.72 73.5514 56.6295 73.438 56.6295Z" fill="#141414"/>
<path d="M102.577 43.841H98.0487C96.3216 43.841 94.9208 45.2398 94.9208 46.9646V48.6712C94.9208 49.8437 95.5872 50.9166 96.6434 51.4326L96.657 51.4417L101.956 54.4204C102.333 54.5879 102.577 55.1673 102.577 55.5792V55.9686C102.577 56.5163 102.133 56.96 101.585 56.96H99.0415C98.493 56.96 98.0442 56.5163 98.0442 55.964V55.457C98.0442 55.2262 97.8583 55.0405 97.6271 55.0405H94.9163V56.9554C94.9163 58.6802 96.317 60.079 98.0442 60.079H102.573C104.3 60.079 105.701 58.6802 105.701 56.9554V55.371C105.701 54.1669 105.039 53.0578 103.978 52.4874C103.974 52.4874 103.969 52.4829 103.965 52.4829L98.6652 49.5223C98.289 49.3548 98.0442 48.7753 98.0442 48.3589V47.9514C98.0442 47.4037 98.4884 46.96 99.037 46.96H101.58C102.129 46.96 102.577 47.4037 102.577 47.956V48.5761C102.577 48.807 102.763 48.9926 102.994 48.9926H105.705V46.96C105.705 45.2398 104.305 43.841 102.577 43.841Z" fill="#141414"/>
<path d="M133.988 59.6716L130.942 54.4023C132.152 53.678 132.959 52.3561 132.959 50.8441V47.2815C132.959 45.5567 131.558 44.1579 129.831 44.1579H122.474C122.36 44.1579 122.265 44.253 122.265 44.3661V59.5991C122.265 59.7123 122.36 59.8074 122.474 59.8074H125.184C125.298 59.8074 125.393 59.7123 125.393 59.5991V55.4072C125.393 55.1764 125.579 54.9908 125.81 54.9908H127.814L130.552 59.7259C130.588 59.7893 130.656 59.83 130.733 59.83L133.897 59.8255C133.974 59.83 134.024 59.744 133.988 59.6716ZM125.388 51.5594V47.7025C125.388 47.4716 125.574 47.286 125.806 47.286H128.77C129.346 47.286 129.813 47.7523 129.813 48.3272V50.9528C129.813 51.5186 129.355 51.9758 128.788 51.9758H125.801C125.574 51.9758 125.388 51.7857 125.388 51.5594Z" fill="#141414"/>
<path d="M81.702 43.6916L82.926 45.8193L84.1545 43.6962C83.7465 43.6328 83.3294 43.6011 82.9033 43.6011C82.4953 43.6011 82.0964 43.6328 81.702 43.6916Z" fill="#141414"/>
<path d="M82.9351 42.6369C83.5289 42.6369 84.1137 42.6957 84.6758 42.7998L85.6232 41.1656C84.7619 40.9529 83.8598 40.8352 82.9351 40.8352C82.0103 40.8352 81.1127 40.9483 80.2514 41.1611L81.1898 42.7953C81.7564 42.6912 82.3367 42.6369 82.9351 42.6369Z" fill="#141414"/>
</svg>
