<svg width="198" height="101" viewBox="0 0 198 101" fill="none" xmlns="http://www.w3.org/2000/svg">
<path d="M79.887 52.7561C79.887 54.0188 80.5746 54.7076 81.9497 54.7076C83.2102 54.7076 83.8978 54.0188 83.8978 53.2153C83.8978 51.0341 76.793 52.2969 76.793 47.131C76.793 44.9499 78.7411 42.9983 81.9497 42.9983C85.0437 42.9983 86.9918 44.9499 86.9918 47.5902L83.7832 47.8198C83.7832 46.6718 83.0957 45.983 81.9497 45.983C80.9184 45.983 80.2308 46.6718 80.2308 47.3606C80.2308 49.4269 87.3356 48.1642 87.3356 53.4449C87.3356 55.7408 85.3875 57.6924 81.9497 57.6924C78.6265 57.6924 76.6784 55.7408 76.6784 52.9857L79.887 52.7561Z" fill="#141414"/>
<path d="M89.0547 47.0163H92.1488V52.6413C92.1488 54.0189 92.951 54.8225 94.0967 54.8225C95.2427 54.8225 96.0449 54.0189 96.0449 52.6413V47.0163H99.1387V57.5776H96.8471L96.3887 56.5444C96.3887 56.5444 95.1282 57.6924 93.2945 57.6924C90.7736 57.6924 89.0547 55.9705 89.0547 53.2153V47.0163Z" fill="#141414"/>
<path d="M108.879 56.5445C108.879 56.5445 107.733 57.6924 105.9 57.6924C103.264 57.6924 100.972 55.3965 100.972 52.2969C100.972 49.1974 103.264 46.9015 105.9 46.9015C107.504 46.9015 108.535 47.8199 108.535 47.8199V43.1132H111.629V57.5776H109.337L108.879 56.5445ZM108.65 52.2969C108.65 50.8046 107.619 49.7714 106.358 49.7714C105.097 49.7714 104.066 50.8046 104.066 52.2969C104.066 53.7894 105.097 54.8225 106.358 54.8225C107.619 54.8225 108.65 53.7894 108.65 52.2969Z" fill="#141414"/>
<path d="M118.849 46.7867C121.828 46.7867 124.235 49.1974 124.235 52.297C124.235 55.3965 121.828 57.8072 118.849 57.8072C115.869 57.8072 113.463 55.3965 113.463 52.297C113.463 49.1974 115.869 46.7867 118.849 46.7867ZM118.849 49.6566C117.588 49.6566 116.557 50.6898 116.557 52.297C116.557 53.9042 117.588 54.9373 118.849 54.9373C120.109 54.9373 121.141 53.9042 121.141 52.297C121.141 50.6898 120.109 49.6566 118.849 49.6566Z" fill="#141414"/>
<path d="M125.61 55.0521L129.964 50.001H125.61V47.0163H133.975V49.5418L129.621 54.5929H134.204V57.5776H125.61V55.0521Z" fill="#141414"/>
<path d="M137.642 42.4243C138.559 42.4243 139.361 43.2279 139.361 44.1463C139.361 45.0647 138.559 45.8682 137.642 45.8682C136.725 45.8682 135.923 45.0647 135.923 44.1463C135.923 43.2279 136.725 42.4243 137.642 42.4243ZM136.038 47.0162H139.132V57.5776H136.038V47.0162Z" fill="#141414"/>
<path d="M63.7868 59.5579C60.1198 59.5579 58.315 57.7785 58.229 56.114C58.1431 54.8512 58.6874 52.6987 63.0993 52.6987C63.2138 52.6987 63.4144 52.6987 63.4144 52.6987C64.8468 52.6987 65.563 51.9238 66.1933 51.2351C66.8808 50.4889 67.4824 49.8288 69.0868 49.8288C73.0689 49.8288 71.9516 55.4826 69.2873 57.7211C67.8835 58.8978 65.8781 59.5579 63.7868 59.5579Z" fill="#141414"/>
<path d="M67.5396 40.6737C71.2066 40.6737 73.0115 42.453 73.0974 44.1176C73.1833 45.3804 72.639 47.5329 68.2272 47.5329C68.1126 47.5329 67.9121 47.5329 67.9121 47.5329C66.4796 47.5329 65.7634 48.3077 65.1332 48.9965C64.4456 49.7427 63.844 50.4028 62.2397 50.4028C58.2576 50.4028 59.3749 44.749 62.0391 42.5104C63.4429 41.3625 65.4483 40.6737 67.5396 40.6737Z" fill="#141414"/>
</svg>
