<svg width="198" height="101" viewBox="0 0 198 101" fill="none" xmlns="http://www.w3.org/2000/svg">
<path d="M37.2389 45.7603C35.8325 45.7603 34.8063 46.5019 34.4262 47.0025H34.3882V46.057H31.3474V58.8316H34.3882V54.6043H34.4262C34.8063 55.1049 35.8325 55.8465 37.2389 55.8465C39.8236 55.8465 41.477 53.9183 41.477 50.8034C41.477 47.6886 39.8236 45.7603 37.2389 45.7603ZM36.4407 53.6216C35.2054 53.6216 34.4452 52.6575 34.4452 50.8034C34.4452 48.9493 35.2054 47.9852 36.4407 47.9852C37.676 47.9852 38.4362 48.9493 38.4362 50.8034C38.4362 52.6575 37.676 53.6216 36.4407 53.6216Z" fill="#141414"/>
<path d="M47.2886 53.6216C46.2054 53.6216 45.1981 52.9171 45.1981 51.5821H52.1919C52.1919 48.1335 50.5005 45.7603 47.1746 45.7603C44.0768 45.7603 42.1573 47.911 42.1573 50.8034C42.1573 53.7699 44.1148 55.8465 47.3457 55.8465C49.9873 55.8465 51.5077 54.5857 52.0399 52.676H49.0181C48.828 53.1396 48.3339 53.6216 47.2886 53.6216ZM47.1746 47.7998C48.3339 47.7998 49.1511 48.4673 49.1511 49.7837H45.1981C45.1981 48.4673 46.0153 47.7998 47.1746 47.7998Z" fill="#141414"/>
<path d="M58.6834 45.8901C57.6192 45.8901 56.7829 46.5576 56.3078 47.6144H56.2698V46.057H53.229V55.5499H56.2698V51.1371C56.2698 49.1162 57.9232 48.2819 59.4816 48.56H59.5196V45.9643C59.1776 45.8901 58.9495 45.8901 58.6834 45.8901Z" fill="#141414"/>
<path d="M66.3344 44.5366V42.3117C65.7833 42.2005 65.3081 42.1263 64.4529 42.1263C62.2293 42.1263 61.6022 43.2758 61.6022 45.408V46.057H60.1578V48.2819H61.6022V55.5499H64.643V48.2819H66.3344V46.057H64.643V45.6491C64.643 44.5366 65.0421 44.5366 66.3344 44.5366Z" fill="#141414"/>
<path d="M71.7315 53.6216C70.6482 53.6216 69.641 52.9171 69.641 51.5821H76.6348C76.6348 48.1335 74.9433 45.7603 71.6175 45.7603C68.5197 45.7603 66.6002 47.911 66.6002 50.8034C66.6002 53.7699 68.5577 55.8465 71.7885 55.8465C74.4302 55.8465 75.9506 54.5857 76.4827 52.676H73.4609C73.2709 53.1396 72.7768 53.6216 71.7315 53.6216ZM71.6175 47.7998C72.7768 47.7998 73.594 48.4673 73.594 49.7837H69.641C69.641 48.4673 70.4582 47.7998 71.6175 47.7998Z" fill="#141414"/>
<path d="M83.9625 49.5983H86.9463C86.6992 47.3919 85.0078 45.7603 82.176 45.7603C79.1733 45.7603 77.2348 47.8554 77.2348 50.8034C77.2348 53.7699 79.1733 55.8465 82.2521 55.8465C85.0458 55.8465 86.7942 54.2149 86.9463 51.9715H83.9625C83.8675 52.8244 83.4494 53.6216 82.2331 53.6216C80.9597 53.6216 80.2755 52.5833 80.2755 50.8034C80.2755 49.0235 80.9787 47.9852 82.2331 47.9852C83.4494 47.9852 83.8675 48.8381 83.9625 49.5983Z" fill="#141414"/>
<path d="M93.4847 48.2819V46.057H91.7933V43.4056H88.7525V46.057H87.4031V48.2819H88.7525V52.435C88.7525 54.5672 89.3797 55.7167 91.6032 55.7167C92.4585 55.7167 92.9336 55.624 93.4847 55.5128V53.2879C92.1924 53.2879 91.7933 53.2879 91.7933 52.2125V48.2819H93.4847Z" fill="#141414"/>
<path d="M97.1243 46.094L100.602 55.5499H102.332L105.81 46.094H104.156L101.476 54.0666H101.457L98.7777 46.094H97.1243Z" fill="#141414"/>
<path d="M110.83 54.5116C108.721 54.5116 107.675 52.9171 107.675 51.2113H115.334C115.334 47.8554 113.852 45.8345 110.811 45.8345C107.979 45.8345 106.155 47.67 106.155 50.8219C106.155 53.7885 107.941 55.8094 110.887 55.8094C113.301 55.8094 114.688 54.4003 115.182 52.6389H113.662C113.491 53.2879 112.769 54.5116 110.83 54.5116ZM110.811 47.1323C112.636 47.1323 113.814 48.3931 113.814 49.9134H107.675C107.675 48.3931 108.987 47.1323 110.811 47.1323Z" fill="#141414"/>
<path d="M121.591 45.8345C119.937 45.8345 118.911 46.5576 118.398 47.225H118.36V46.094H116.84V55.5499H118.36V49.6539C118.36 48.1892 119.5 47.1323 121.211 47.1323C122.731 47.1323 123.32 48.0965 123.32 49.3201V55.5499H124.841V48.9493C124.841 46.7801 123.358 45.8345 121.591 45.8345Z" fill="#141414"/>
<path d="M130.914 47.3919V46.094H129.013V42.9421H127.493V46.094H126.067V47.3919H127.493V53.2323C127.493 55.1605 128.481 55.6611 129.773 55.6611C130.173 55.6611 130.572 55.624 130.914 55.5499V54.252C129.621 54.3447 129.013 54.1593 129.013 53.0839V47.3919H130.914Z" fill="#141414"/>
<path d="M138.927 46.094V51.99C138.927 53.4547 137.787 54.5116 136.077 54.5116C134.556 54.5116 133.967 53.5474 133.967 52.3238V46.094H132.447V52.6946C132.447 54.8638 133.929 55.8094 135.697 55.8094C137.35 55.8094 138.376 55.0863 138.889 54.4189H138.927V55.5499H140.448V46.094H138.927Z" fill="#141414"/>
<path d="M146.783 45.8345C145.395 45.8345 144.616 46.7244 144.103 47.9667H144.065V46.094H142.544V55.5499H144.065V50.5068C144.065 48.4858 145.528 47.0396 147.638 47.3734H147.676V45.8901C147.41 45.853 147.144 45.8345 146.783 45.8345Z" fill="#141414"/>
<path d="M152.812 54.5116C150.702 54.5116 149.657 52.9171 149.657 51.2113H157.316C157.316 47.8554 155.833 45.8345 152.793 45.8345C149.961 45.8345 148.136 47.67 148.136 50.8219C148.136 53.7885 149.923 55.8094 152.869 55.8094C155.282 55.8094 156.67 54.4003 157.164 52.6389H155.643C155.472 53.2879 154.75 54.5116 152.812 54.5116ZM152.793 47.1323C154.617 47.1323 155.795 48.3931 155.795 49.9134H149.657C149.657 48.3931 150.968 47.1323 152.793 47.1323Z" fill="#141414"/>
<path d="M162.755 49.932C161.406 49.6168 160.094 49.5241 160.094 48.4116C160.094 47.67 160.836 47.1323 162.204 47.1323C164.028 47.1323 164.39 48.0779 164.542 48.801H166.062C165.91 47.1694 164.618 45.8345 162.204 45.8345C159.923 45.8345 158.574 47.0396 158.574 48.5229C158.574 50.7478 160.779 50.9147 162.261 51.2669C163.648 51.6007 164.922 51.6748 164.922 53.0468C164.922 53.6772 164.276 54.5116 162.622 54.5116C160.189 54.5116 159.809 53.4547 159.714 52.3979H158.194C158.289 54.4374 159.657 55.8094 162.622 55.8094C164.827 55.8094 166.442 54.6784 166.442 52.9541C166.442 50.618 164.485 50.3399 162.755 49.932Z" fill="#141414"/>
</svg>
