<svg width="199" height="101" viewBox="0 0 199 101" fill="none" xmlns="http://www.w3.org/2000/svg">
<path fill-rule="evenodd" clip-rule="evenodd" d="M67.2074 43.478C67.1078 43.578 67.0521 43.7136 67.0526 43.8547V62.3699C67.0521 62.5109 67.1079 62.6462 67.2076 62.7459C67.3072 62.8456 67.4426 62.9013 67.5835 62.9008H69.3969C69.6861 62.8915 69.9185 62.6592 69.9278 62.3699V55.2338H74.1489L77.8671 62.6443C77.9608 62.8017 78.1313 62.8972 78.3145 62.8948H80.5016C80.6993 62.9055 80.8864 62.8048 80.9864 62.634C81.0865 62.4632 81.0828 62.2508 80.9768 62.0836L77.1453 54.9833C79.579 54.0031 81.285 51.8795 81.285 49.3067C81.285 45.9782 78.5431 43.3218 75.1888 43.3218H67.5835C67.4424 43.3218 67.307 43.378 67.2074 43.478ZM78.3764 49.3583C78.3724 51.2502 76.856 52.7913 74.9645 52.826H69.9937V46.0299H74.9645C76.7858 46.0299 78.3764 47.541 78.3764 49.3583Z" fill="#141414"/>
<path d="M87.9379 43.8547C87.9472 43.5651 88.1792 43.3322 88.4688 43.3218H90.314C90.6035 43.3322 90.8356 43.5651 90.8448 43.8547V62.3699C90.8356 62.6592 90.6032 62.8915 90.314 62.9008H88.4688C88.1795 62.8915 87.9472 62.6592 87.9379 62.3699L87.9379 43.8547Z" fill="#141414"/>
<path fill-rule="evenodd" clip-rule="evenodd" d="M122.24 43.3498L113.656 62.1712C113.571 62.3307 113.58 62.5241 113.68 62.6751C113.779 62.8261 113.953 62.9104 114.134 62.8949H115.895C116.174 62.8958 116.426 62.7309 116.538 62.4754C116.811 61.848 117.091 61.2278 117.37 60.6077C117.664 59.9562 117.957 59.305 118.244 58.6459H127.39L129.12 62.4774C129.219 62.7425 129.479 62.9123 129.762 62.8969H131.523C131.704 62.9121 131.878 62.8272 131.977 62.6757C132.077 62.5242 132.085 62.3305 131.999 62.1712L123.471 43.3498C123.367 43.181 123.192 43.0684 122.996 43.0436H122.715C122.519 43.0684 122.344 43.181 122.24 43.3498ZM122.884 48.5791L126.322 56.242L119.333 56.2401L122.743 48.5791H122.884Z" fill="#141414"/>
<path d="M113.422 46.861C113.412 46.8352 113.408 46.8093 113.396 46.7855C113.36 46.6897 113.289 46.611 113.197 46.5648C113.182 46.553 113.165 46.543 113.148 46.535C113.141 46.5327 113.134 46.5327 113.128 46.535C112.969 46.5328 112.812 46.5668 112.669 46.6344V46.6344C112.621 46.6503 112.573 46.6682 112.533 46.6861C112.533 46.6861 112.533 46.6861 112.519 46.6861L110.454 47.6981C110.086 47.8792 109.79 48.1781 109.613 48.5471L109.589 48.5968L108.147 51.7145L105.147 57.9558H105.095L102.095 51.7145L100.653 48.5968L100.629 48.5471C100.452 48.1781 100.156 47.8792 99.7883 47.6981L97.7224 46.6861C97.7224 46.6861 97.7224 46.6861 97.7105 46.6861C97.6687 46.6682 97.621 46.6503 97.5733 46.6344V46.6344C97.4297 46.5668 97.2726 46.5328 97.114 46.535C97.1075 46.5327 97.1005 46.5327 97.0941 46.535C97.0767 46.5434 97.06 46.5534 97.0444 46.5648C96.9529 46.611 96.882 46.6897 96.8456 46.7855C96.8355 46.81 96.8275 46.8352 96.8217 46.861C96.7999 46.9431 96.8041 47.0299 96.8336 47.1096L104.389 62.865C104.474 63.0508 104.66 63.1698 104.864 63.1692H105.417C105.622 63.1698 105.807 63.0508 105.892 62.865L113.448 47.1096C113.464 47.026 113.455 46.9395 113.422 46.861V46.861Z" fill="#141414"/>
<path d="M114.166 43.0653C114.166 42.0992 113.901 41.1514 113.4 40.3255C113.223 40.0328 113.017 39.7579 112.788 39.5043L112.704 39.4168L112.611 39.3194C111.623 38.3208 110.275 37.7618 108.871 37.7685C108.775 37.7685 108.672 37.7685 108.588 37.7685H108.557C108.455 37.7685 108.33 37.7844 108.222 37.8023H108.195L108.049 37.8241H108.014H107.98H107.962C107.952 37.8223 107.942 37.8223 107.932 37.8241C107.896 37.8241 107.863 37.8401 107.823 37.848L107.767 37.858H107.749H107.715L107.626 37.8778C107.594 37.8874 107.561 37.8954 107.529 37.9017C107.487 37.9106 107.445 37.9226 107.405 37.9375H107.375C107.27 37.9693 107.161 38.0011 107.057 38.0429L107.077 38.0906L107.043 38.0488C106.999 38.062 106.956 38.0779 106.914 38.0965L106.829 38.1303C106.779 38.1542 106.731 38.1741 106.684 38.194L106.604 38.2298C106.457 38.2974 106.316 38.3769 106.177 38.4584C106.108 38.4971 106.042 38.5396 105.978 38.5857L105.779 38.7149C105.679 38.7905 105.592 38.866 105.512 38.9356C105.512 38.9356 105.495 38.9456 105.497 38.9475L105.477 38.9595C105.43 39.0141 105.377 39.0635 105.32 39.1066C105.305 39.1166 105.289 39.1234 105.272 39.1265C105.255 39.1341 105.238 39.1395 105.22 39.1424C105.143 39.1712 105.058 39.1712 104.982 39.1424L104.938 39.1265L104.886 39.1046C104.838 39.0799 104.791 39.0527 104.745 39.0231L104.725 39.0112C104.62 38.9197 104.538 38.8501 104.437 38.7746L104.238 38.6493L104.039 38.5201L103.989 38.4922C103.88 38.4306 103.745 38.353 103.61 38.2934L103.532 38.2596H103.514C103.472 38.2417 103.431 38.2238 103.393 38.2039C103.384 38.2022 103.376 38.2022 103.367 38.2039L103.299 38.1761C103.254 38.1548 103.207 38.1375 103.158 38.1244C103.043 38.077 102.924 38.0378 102.802 38.0071C102.765 37.9951 102.723 37.9812 102.679 37.9713L102.586 37.9494L102.488 37.9275C102.417 37.9096 102.345 37.8937 102.265 37.8798H102.216H102.148C102.102 37.8798 102.059 37.8679 102.015 37.8599H101.975C101.858 37.844 101.739 37.8341 101.645 37.8281H101.629C101.54 37.8281 101.43 37.8281 101.341 37.8281C99.9359 37.8235 98.5878 38.3829 97.5989 39.381L97.5273 39.4566L97.5035 39.4824C97.4756 39.5083 97.4498 39.5361 97.4239 39.5639C97.1943 39.8162 96.9892 40.0899 96.8115 40.3811C96.3111 41.2075 96.0464 42.155 96.046 43.121C96.0428 43.168 96.0428 43.2152 96.046 43.2622V43.4252C96.046 43.4252 96.046 43.4392 96.046 43.4451C96.046 43.4511 96.046 43.469 96.046 43.4869C96.0478 43.5021 96.0478 43.5174 96.046 43.5326C96.048 43.5677 96.048 43.6029 96.046 43.638C96.0432 43.6664 96.0432 43.6951 96.046 43.7235V43.7235C96.0453 43.7425 96.0487 43.7615 96.056 43.7792C96.0681 43.827 96.0847 43.8736 96.1057 43.9183C96.1276 43.9633 96.1528 44.0065 96.1812 44.0476C96.2331 44.1215 96.3011 44.1827 96.3801 44.2265V44.2265C96.3914 44.2363 96.4042 44.2443 96.4179 44.2504H96.4358L96.4596 44.2623L98.6527 45.2704C98.7431 45.3209 98.8504 45.3317 98.949 45.3002C98.9756 45.2935 99.0011 45.2828 99.0245 45.2684C99.0441 45.2584 99.0616 45.2449 99.0762 45.2286C99.1265 45.1627 99.1386 45.0751 99.108 44.998C99.0782 44.9105 99.0524 44.829 99.0265 44.7514C98.953 44.5248 98.8973 44.3299 98.8575 44.1549V44.1311C98.8436 44.0754 98.8317 44.0217 98.8197 43.968V43.9422C98.821 43.927 98.821 43.9117 98.8197 43.8965C98.816 43.8836 98.8113 43.8709 98.8058 43.8587C98.8073 43.8387 98.8032 43.8188 98.7939 43.801C98.784 43.7652 98.772 43.7275 98.7661 43.6937C98.7601 43.6599 98.7521 43.63 98.7462 43.6002V43.5644C98.7462 43.5286 98.7342 43.4928 98.7263 43.4491V43.4073C98.7263 43.4073 98.7263 43.4073 98.7263 43.3934V43.3656C98.7244 43.3384 98.7244 43.3112 98.7263 43.2841C98.7263 43.2841 98.7263 43.2721 98.7263 43.2642V43.2523V43.2523C98.7268 43.247 98.7268 43.2416 98.7263 43.2363V43.2363C98.7286 43.2172 98.7286 43.1978 98.7263 43.1787V43.1349C98.7263 43.0892 98.7263 43.0594 98.7263 43.0395V43.0236C98.7249 42.7758 98.7604 42.5292 98.8317 42.2919V42.2879C98.8595 42.2024 98.8893 42.1189 98.9231 42.0374L98.939 42.0016C98.9549 41.9698 98.9689 41.938 98.9848 41.9081C99.1179 41.638 99.2954 41.392 99.5097 41.1804C99.6277 41.0629 99.7561 40.9564 99.8934 40.8623C99.9381 40.8295 99.9853 40.8002 100.035 40.7748C100.127 40.7163 100.224 40.6658 100.325 40.6237C100.398 40.5908 100.473 40.5622 100.55 40.5382H100.565C100.622 40.519 100.68 40.5031 100.738 40.4905C100.844 40.4618 100.951 40.4405 101.059 40.4269C101.143 40.4154 101.228 40.4087 101.313 40.407C101.906 40.4222 102.476 40.6349 102.934 41.0114H102.949C102.954 41.0189 102.96 41.0256 102.967 41.0313C103.142 41.1683 103.301 41.3244 103.441 41.4966C103.564 41.6513 103.668 41.8202 103.751 41.9996C103.874 42.2482 104.001 42.5066 104.148 42.7611C104.27 43.0074 104.518 43.1665 104.793 43.1747H105.443C105.712 43.1695 105.958 43.0168 106.081 42.777C106.224 42.5305 106.346 42.2839 106.479 42.0235L106.489 42.0016C106.572 41.8248 106.676 41.6581 106.797 41.5045C106.936 41.3342 107.093 41.1795 107.266 41.0432C107.266 41.0432 107.282 41.0293 107.28 41.0273L107.308 41.0114C107.773 40.6195 108.36 40.401 108.968 40.3931C109.055 40.3943 109.142 40.401 109.229 40.4129C109.338 40.4252 109.447 40.4472 109.553 40.4786C109.607 40.4896 109.661 40.5049 109.714 40.5243V40.5243H109.734C109.809 40.5484 109.883 40.5769 109.954 40.6098C110.058 40.6508 110.158 40.7028 110.251 40.7649C110.287 40.7831 110.323 40.8044 110.356 40.8285L110.386 40.8484C110.523 40.9422 110.651 41.0488 110.768 41.1665C110.892 41.2867 111.004 41.42 111.1 41.5642C111.169 41.6684 111.231 41.7774 111.284 41.8903L111.346 42.0215C111.382 42.105 111.412 42.1965 111.436 42.268C111.434 42.2779 111.434 42.288 111.436 42.2979V42.2979C111.502 42.5299 111.536 42.7702 111.535 43.0117C111.535 43.0117 111.535 43.0614 111.535 43.1528C111.536 43.1701 111.536 43.1873 111.535 43.2045V43.2463C111.536 43.2608 111.536 43.2755 111.535 43.29C111.535 43.3079 111.535 43.3258 111.535 43.3457V43.3457C111.535 43.3576 111.535 43.3715 111.535 43.3894L111.525 43.4392C111.525 43.471 111.515 43.5068 111.507 43.5406L111.485 43.6738C111.478 43.7168 111.467 43.7594 111.453 43.801C111.448 43.8137 111.445 43.8271 111.444 43.8408C111.443 43.8514 111.443 43.862 111.444 43.8726C111.444 43.8726 111.444 43.8945 111.444 43.8965L111.434 43.9422C111.422 44.0018 111.408 44.0655 111.39 44.1291C111.342 44.316 111.292 44.489 111.237 44.662C111.209 44.7574 111.177 44.8608 111.141 44.9582C111.14 44.9668 111.14 44.9755 111.141 44.9841C111.115 45.0583 111.129 45.1408 111.177 45.2028L111.189 45.2147C111.195 45.2234 111.205 45.2297 111.215 45.2326C111.237 45.2503 111.263 45.2626 111.29 45.2684C111.332 45.2856 111.377 45.2944 111.422 45.2943C111.482 45.2939 111.541 45.2782 111.593 45.2485L113.748 44.2047L113.79 44.1868C113.806 44.1806 113.82 44.1703 113.832 44.1569C113.861 44.1385 113.889 44.1172 113.915 44.0933L113.933 44.0774L113.951 44.0635C113.967 44.0547 113.981 44.0433 113.993 44.0297C114.043 43.9746 114.084 43.9114 114.114 43.8428L114.14 43.7811C114.15 43.7553 114.158 43.7287 114.164 43.7016C114.167 43.6799 114.167 43.6577 114.164 43.636C114.166 43.6142 114.166 43.5922 114.164 43.5704L114.175 43.4431C114.174 43.4299 114.174 43.4165 114.175 43.4034C114.176 43.3915 114.176 43.3795 114.175 43.3676C114.175 43.3676 114.175 43.3517 114.175 43.3258V43.1926C114.174 43.15 114.171 43.1076 114.166 43.0653V43.0653Z" fill="#141414"/>
</svg>
