<svg width="237" height="24" viewBox="0 0 237 24" fill="none" xmlns="http://www.w3.org/2000/svg">
<path d="M3.32955 17.736H0.0901754C0.121323 19.4491 0.806576 20.7885 2.11479 21.7541C3.423 22.7197 5.16728 23.1869 7.31648 23.1869C8.5624 23.1869 9.71487 23 10.7427 22.5951C11.7395 22.1902 12.5493 21.5983 13.1411 20.8508C13.7018 20.1032 14.0133 19.2 14.0133 18.2032C14.0133 17.0819 13.7329 16.2098 13.1723 15.5557C12.6116 14.9016 11.8641 14.4343 10.9296 14.1229C9.9952 13.8114 8.84273 13.5933 7.47222 13.4376C6.44434 13.313 5.69679 13.2196 5.26072 13.1261C4.7935 13.0327 4.41973 12.8769 4.10825 12.6278C3.79677 12.3786 3.67218 12.0359 3.67218 11.5376C3.67218 10.9146 3.95251 10.3851 4.57547 10.0113C5.16728 9.63756 5.94597 9.45068 6.94271 9.45068C7.90829 9.45068 8.71814 9.69986 9.37224 10.1671C9.9952 10.6343 10.369 11.2261 10.4624 11.9425H13.7329C13.6084 10.3228 12.9231 9.0769 11.6772 8.17361C10.4313 7.30147 8.78043 6.83425 6.78697 6.83425C5.54105 6.83425 4.45088 7.05229 3.48529 7.45721C2.51971 7.89328 1.77216 8.48509 1.2115 9.23264C0.650837 9.98019 0.401654 10.8523 0.401654 11.8179C0.401654 12.8769 0.650837 13.6868 1.2115 14.3097C1.77216 14.9327 2.48856 15.3688 3.39185 15.6491C4.29514 15.9294 5.44761 16.1475 6.84926 16.3032C7.846 16.4278 8.59354 16.5524 9.09191 16.677C9.59028 16.8016 9.96405 16.9885 10.2755 17.2376C10.5559 17.518 10.7116 17.9229 10.7116 18.4524C10.7116 19.1065 10.369 19.636 9.74602 20.0098C9.12306 20.3836 8.28207 20.5705 7.28533 20.5705C6.13286 20.5705 5.19843 20.3213 4.48203 19.7918C3.76562 19.2623 3.39185 18.577 3.32955 17.736ZM28.4501 8.60968C27.2665 7.45721 25.7091 6.8654 23.8403 6.8654C21.6288 6.8654 19.9156 7.6441 18.732 9.1392L18.3582 7.05229H15.4303V23H18.7943V14.9638C18.7943 13.3442 19.1681 12.0982 19.9156 11.1638C20.6632 10.2294 21.7222 9.76216 23.0616 9.76216C24.3075 9.76216 25.2419 10.1671 25.896 10.9458C26.519 11.7556 26.8616 12.9081 26.8616 14.4032V23H30.2567V14.2163C30.2567 11.6622 29.6338 9.7933 28.4501 8.60968ZM35.275 22.1902C36.5209 22.8754 37.9226 23.1869 39.5423 23.1869C41.1308 23.1869 42.5325 22.8754 43.7784 22.1902C45.0243 21.5049 45.9587 20.5705 46.644 19.3246C47.3292 18.0786 47.6719 16.6458 47.6719 15.0261C47.6719 13.4376 47.3292 12.0359 46.644 10.79C45.9587 9.54412 45.0243 8.57854 43.7784 7.89328C42.5325 7.20803 41.1308 6.8654 39.5423 6.8654C37.9226 6.8654 36.5209 7.20803 35.275 7.89328C34.0291 8.57854 33.0946 9.54412 32.4094 10.79C31.7241 12.0359 31.4127 13.4376 31.4127 15.0261C31.4127 16.6458 31.7241 18.0786 32.4094 19.3246C33.0946 20.5705 34.0291 21.5049 35.275 22.1902ZM42.9374 18.8573C42.0652 19.8541 40.9439 20.3213 39.5423 20.3213C38.1095 20.3213 36.9881 19.8541 36.1471 18.8573C35.275 17.8606 34.8701 16.5835 34.8701 15.0261C34.8701 13.4688 35.275 12.2228 36.1471 11.2261C36.9881 10.2294 38.1095 9.73101 39.5423 9.73101C40.9439 9.73101 42.0652 10.2294 42.9374 11.2261C43.8095 12.2228 44.2456 13.4688 44.2456 15.0261C44.2456 16.5835 43.8095 17.8606 42.9374 18.8573ZM47.0828 7.05229L52.2845 23.0311L55.9288 23L59.4173 12.1605L62.7813 23H66.3945L71.6896 7.05229H68.2633L64.4944 19.2623L61.0059 7.05229H57.9222L54.2779 19.2623L50.6336 7.05229H47.0828ZM85.1687 8.60968C83.9851 7.45721 82.4277 6.8654 80.5276 6.8654C78.3784 6.8654 76.6965 7.7064 75.5128 9.35723V1.19649H72.1489V23H75.5128V14.9327C75.5128 13.3442 75.8866 12.0982 76.6342 11.1638C77.3817 10.2294 78.4407 9.76216 79.7801 9.76216C81.026 9.76216 81.9604 10.1671 82.6145 10.9458C83.2687 11.7556 83.6113 12.9081 83.6113 14.4032V23H86.9752V14.2163C86.9752 11.6622 86.3523 9.7933 85.1687 8.60968ZM91.9935 22.1902C93.2394 22.8754 94.6411 23.1869 96.2608 23.1869C97.8493 23.1869 99.251 22.8754 100.497 22.1902C101.743 21.5049 102.677 20.5705 103.363 19.3246C104.048 18.0786 104.39 16.6458 104.39 15.0261C104.39 13.4376 104.048 12.0359 103.363 10.79C102.677 9.54412 101.743 8.57854 100.497 7.89328C99.251 7.20803 97.8493 6.8654 96.2608 6.8654C94.6411 6.8654 93.2394 7.20803 91.9935 7.89328C90.7476 8.57854 89.8132 9.54412 89.1279 10.79C88.4427 12.0359 88.1312 13.4376 88.1312 15.0261C88.1312 16.6458 88.4427 18.0786 89.1279 19.3246C89.8132 20.5705 90.7476 21.5049 91.9935 22.1902ZM99.6559 18.8573C98.7838 19.8541 97.6624 20.3213 96.2608 20.3213C94.828 20.3213 93.7067 19.8541 92.8657 18.8573C91.9935 17.8606 91.5886 16.5835 91.5886 15.0261C91.5886 13.4688 91.9935 12.2228 92.8657 11.2261C93.7067 10.2294 94.828 9.73101 96.2608 9.73101C97.6624 9.73101 98.7838 10.2294 99.6559 11.2261C100.528 12.2228 100.964 13.4688 100.964 15.0261C100.964 16.5835 100.528 17.8606 99.6559 18.8573ZM120.081 7.05229H116.717V14.9638C116.717 16.6147 116.343 17.9229 115.627 18.8573C114.879 19.7918 113.882 20.259 112.605 20.259C111.359 20.259 110.456 19.8541 109.833 19.0442C109.21 18.2344 108.899 17.0508 108.899 15.4934V7.05229H105.535V15.836C105.535 18.4213 106.095 20.2901 107.279 21.4426C108.431 22.6262 109.958 23.1869 111.827 23.1869C113.882 23.1869 115.533 22.4705 116.748 20.9754L117.122 23H120.081V7.05229ZM124.763 17.736H121.524C121.555 19.4491 122.24 20.7885 123.548 21.7541C124.856 22.7197 126.601 23.1869 128.75 23.1869C129.996 23.1869 131.148 23 132.176 22.5951C133.173 22.1902 133.983 21.5983 134.575 20.8508C135.135 20.1032 135.447 19.2 135.447 18.2032C135.447 17.0819 135.166 16.2098 134.606 15.5557C134.045 14.9016 133.297 14.4343 132.363 14.1229C131.429 13.8114 130.276 13.5933 128.906 13.4376C127.878 13.313 127.13 13.2196 126.694 13.1261C126.227 13.0327 125.853 12.8769 125.542 12.6278C125.23 12.3786 125.106 12.0359 125.106 11.5376C125.106 10.9146 125.386 10.3851 126.009 10.0113C126.601 9.63756 127.379 9.45068 128.376 9.45068C129.342 9.45068 130.152 9.69986 130.806 10.1671C131.429 10.6343 131.802 11.2261 131.896 11.9425H135.166C135.042 10.3228 134.356 9.0769 133.111 8.17361C131.865 7.30147 130.214 6.83425 128.22 6.83425C126.974 6.83425 125.884 7.05229 124.919 7.45721C123.953 7.89328 123.206 8.48509 122.645 9.23264C122.084 9.98019 121.835 10.8523 121.835 11.8179C121.835 12.8769 122.084 13.6868 122.645 14.3097C123.206 14.9327 123.922 15.3688 124.825 15.6491C125.729 15.9294 126.881 16.1475 128.283 16.3032C129.279 16.4278 130.027 16.5524 130.525 16.677C131.024 16.8016 131.397 16.9885 131.709 17.2376C131.989 17.518 132.145 17.9229 132.145 18.4524C132.145 19.1065 131.802 19.636 131.179 20.0098C130.556 20.3836 129.715 20.5705 128.719 20.5705C127.566 20.5705 126.632 20.3213 125.915 19.7918C125.199 19.2623 124.825 18.577 124.763 17.736ZM137.237 10.7589C136.583 12.0048 136.272 13.4376 136.272 15.0573C136.272 16.677 136.583 18.1098 137.269 19.3246C137.954 20.5705 138.888 21.5049 140.134 22.1902C141.38 22.8754 142.813 23.1869 144.495 23.1869C146.395 23.1869 147.983 22.6885 149.261 21.6295C150.538 20.6016 151.316 19.2623 151.628 17.6426H148.264C148.015 18.5459 147.547 19.2311 146.862 19.7295C146.146 20.2278 145.274 20.4459 144.246 20.4459C142.938 20.4459 141.879 20.041 141.1 19.2311C140.29 18.4213 139.854 17.3311 139.792 15.9294V15.7425H151.815C151.877 15.3065 151.908 14.9016 151.908 14.4655C151.877 12.9392 151.534 11.5999 150.849 10.4474C150.164 9.32609 149.261 8.4228 148.077 7.79984C146.893 7.17688 145.554 6.8654 144.028 6.8654C142.501 6.8654 141.162 7.20803 139.978 7.89328C138.795 8.57854 137.892 9.51297 137.237 10.7589ZM148.482 13.2819H139.916C140.041 12.1605 140.477 11.2884 141.287 10.6031C142.097 9.91789 143.031 9.57527 144.152 9.57527C145.336 9.57527 146.302 9.91789 147.08 10.572C147.859 11.2261 148.326 12.1294 148.482 13.2819ZM152.623 19.5426C152.218 19.9475 152.031 20.4459 152.031 21.0688C152.031 21.6918 152.218 22.2213 152.623 22.5951C153.028 23 153.558 23.1869 154.181 23.1869C154.803 23.1869 155.302 23 155.738 22.5951C156.143 22.2213 156.361 21.6918 156.361 21.0688C156.361 20.4459 156.143 19.9475 155.738 19.5426C155.302 19.1688 154.803 18.9508 154.181 18.9508C153.558 18.9508 153.028 19.1688 152.623 19.5426Z" fill="#000D26"/>
<path d="M160.676 17.736H157.436C157.467 19.4491 158.153 20.7885 159.461 21.7541C160.769 22.7197 162.513 23.1869 164.663 23.1869C165.908 23.1869 167.061 23 168.089 22.5951C169.086 22.1902 169.895 21.5983 170.487 20.8508C171.048 20.1032 171.359 19.2 171.359 18.2032C171.359 17.0819 171.079 16.2098 170.518 15.5557C169.958 14.9016 169.21 14.4343 168.276 14.1229C167.341 13.8114 166.189 13.5933 164.818 13.4376C163.79 13.313 163.043 13.2196 162.607 13.1261C162.14 13.0327 161.766 12.8769 161.454 12.6278C161.143 12.3786 161.018 12.0359 161.018 11.5376C161.018 10.9146 161.299 10.3851 161.922 10.0113C162.513 9.63756 163.292 9.45068 164.289 9.45068C165.254 9.45068 166.064 9.69986 166.718 10.1671C167.341 10.6343 167.715 11.2261 167.809 11.9425H171.079C170.954 10.3228 170.269 9.0769 169.023 8.17361C167.777 7.30147 166.127 6.83425 164.133 6.83425C162.887 6.83425 161.797 7.05229 160.831 7.45721C159.866 7.89328 159.118 8.48509 158.558 9.23264C157.997 9.98019 157.748 10.8523 157.748 11.8179C157.748 12.8769 157.997 13.6868 158.558 14.3097C159.118 14.9327 159.835 15.3688 160.738 15.6491C161.641 15.9294 162.794 16.1475 164.195 16.3032C165.192 16.4278 165.94 16.5524 166.438 16.677C166.936 16.8016 167.31 16.9885 167.622 17.2376C167.902 17.518 168.058 17.9229 168.058 18.4524C168.058 19.1065 167.715 19.636 167.092 20.0098C166.469 20.3836 165.628 20.5705 164.631 20.5705C163.479 20.5705 162.545 20.3213 161.828 19.7918C161.112 19.2623 160.738 18.577 160.676 17.736ZM173.804 10.0113V18.6704C173.804 20.1655 174.147 21.2557 174.832 21.941C175.517 22.6574 176.639 23 178.165 23H181.404V20.041H178.85C178.227 20.041 177.822 19.9164 177.573 19.6672C177.324 19.418 177.199 18.9508 177.199 18.3278V10.0113H181.031V7.05229H177.199V2.59814H173.804V7.05229H171.032V10.0113H173.804ZM196.195 7.05229H192.831V14.9638C192.831 16.6147 192.457 17.9229 191.741 18.8573C190.993 19.7918 189.997 20.259 188.72 20.259C187.474 20.259 186.57 19.8541 185.947 19.0442C185.324 18.2344 185.013 17.0508 185.013 15.4934V7.05229H181.649V15.836C181.649 18.4213 182.21 20.2901 183.393 21.4426C184.546 22.6262 186.072 23.1869 187.941 23.1869C189.997 23.1869 191.647 22.4705 192.862 20.9754L193.236 23H196.195V7.05229ZM213.679 1.19649H210.315V9.26379C209.754 8.51624 209.069 7.95558 208.197 7.51951C207.325 7.08344 206.297 6.8654 205.145 6.8654C203.712 6.8654 202.404 7.20803 201.282 7.89328C200.13 8.57854 199.226 9.51297 198.572 10.7589C197.918 12.0048 197.607 13.4065 197.607 15.0261C197.607 16.7081 197.918 18.1409 198.572 19.3868C199.195 20.6328 200.099 21.5672 201.251 22.2213C202.372 22.8754 203.681 23.1869 205.145 23.1869C207.325 23.1869 209.069 22.3459 210.346 20.6016L210.751 23H213.679V1.19649ZM209.069 18.8885C208.197 19.8852 207.076 20.3524 205.705 20.3524C204.304 20.3524 203.182 19.8852 202.341 18.8885C201.469 17.8917 201.064 16.6147 201.064 15.0261C201.064 13.4688 201.469 12.2228 202.341 11.2261C203.182 10.2294 204.304 9.73101 205.705 9.73101C207.076 9.73101 208.197 10.2294 209.069 11.2261C209.91 12.2228 210.346 13.4999 210.346 15.0884C210.346 16.6458 209.91 17.9229 209.069 18.8885ZM218.801 1.25879C218.396 0.885012 217.897 0.666978 217.337 0.666978C216.745 0.666978 216.247 0.885012 215.873 1.25879C215.468 1.63256 215.281 2.13093 215.281 2.69159C215.281 3.2834 215.468 3.78176 215.873 4.15554C216.247 4.52931 216.745 4.7162 217.337 4.7162C217.897 4.7162 218.396 4.52931 218.801 4.15554C219.175 3.78176 219.393 3.2834 219.393 2.69159C219.393 2.13093 219.175 1.63256 218.801 1.25879ZM215.655 7.05229V23H219.019V7.05229H215.655ZM224.275 22.1902C225.521 22.8754 226.923 23.1869 228.543 23.1869C230.131 23.1869 231.533 22.8754 232.779 22.1902C234.025 21.5049 234.959 20.5705 235.644 19.3246C236.33 18.0786 236.672 16.6458 236.672 15.0261C236.672 13.4376 236.33 12.0359 235.644 10.79C234.959 9.54412 234.025 8.57854 232.779 7.89328C231.533 7.20803 230.131 6.8654 228.543 6.8654C226.923 6.8654 225.521 7.20803 224.275 7.89328C223.029 8.57854 222.095 9.54412 221.41 10.79C220.724 12.0359 220.413 13.4376 220.413 15.0261C220.413 16.6458 220.724 18.0786 221.41 19.3246C222.095 20.5705 223.029 21.5049 224.275 22.1902ZM231.938 18.8573C231.066 19.8541 229.944 20.3213 228.543 20.3213C227.11 20.3213 225.988 19.8541 225.147 18.8573C224.275 17.8606 223.87 16.5835 223.87 15.0261C223.87 13.4688 224.275 12.2228 225.147 11.2261C225.988 10.2294 227.11 9.73101 228.543 9.73101C229.944 9.73101 231.066 10.2294 231.938 11.2261C232.81 12.2228 233.246 13.4688 233.246 15.0261C233.246 16.5835 232.81 17.8606 231.938 18.8573Z" fill="#000D26" fill-opacity="0.5"/>
</svg>
