<svg width="199" height="100" viewBox="0 0 199 100" fill="none" xmlns="http://www.w3.org/2000/svg">
<path fill-rule="evenodd" clip-rule="evenodd" d="M78.8955 47.185C81.3053 48.0191 83.0359 50.3082 83.0359 53.0019C83.0359 56.4008 80.2806 59.1561 76.8818 59.1561C73.4829 59.1561 70.7275 56.4008 70.7275 53.0019C70.7275 50.3082 72.4584 48.0191 74.8683 47.185C75.0209 48.1599 75.8642 48.9057 76.8818 48.9057C77.8996 48.9057 78.7428 48.1599 78.8955 47.185ZM76.8818 50.9637C75.7562 50.9637 74.8437 51.8762 74.8437 53.0019C74.8437 54.1275 75.7562 55.0401 76.8818 55.0401C78.0075 55.0401 78.92 54.1275 78.92 53.0019C78.92 51.8762 78.0075 50.9637 76.8818 50.9637ZM76.8818 40.6737C80.2969 40.6737 83.0666 43.4357 83.0795 46.8477H78.9198C78.9091 45.7311 78.0008 44.8292 76.8818 44.8292C75.7627 44.8292 74.8544 45.7311 74.8439 46.8477H70.6842C70.6972 43.4357 73.4668 40.6737 76.8818 40.6737Z" fill="#141414"/>
<path fill-rule="evenodd" clip-rule="evenodd" d="M92.0571 55.0403C90.938 55.0403 90.0297 54.1384 90.0192 53.0217H90.0226V46.8477H90.0192C90.0297 45.7313 90.938 44.8294 92.0571 44.8294C93.1761 44.8294 94.0844 45.7313 94.0951 46.8477V53.0217C94.0844 54.1384 93.1761 55.0403 92.0571 55.0403ZM92.0571 40.6737C88.6421 40.6737 85.8725 43.4358 85.8595 46.8477V53.0217C85.8725 56.4337 88.6421 59.1958 92.0571 59.1958C95.472 59.1958 98.2419 56.4337 98.2548 53.0217V46.8477C98.2416 43.4358 95.472 40.6737 92.0571 40.6737Z" fill="#141414"/>
<path fill-rule="evenodd" clip-rule="evenodd" d="M124.397 53.0217C124.388 54.1384 123.479 55.0403 122.359 55.0403C121.242 55.0403 120.332 54.1384 120.321 53.0217V46.8477C120.332 45.7313 121.24 44.8294 122.359 44.8294C123.479 44.8294 124.388 45.7313 124.397 46.8477H124.395V53.0217H124.397ZM122.359 40.6737C118.945 40.6737 116.174 43.4358 116.163 46.8477V53.0217C116.174 56.4337 118.945 59.1958 122.359 59.1958C125.776 59.1958 128.544 56.4337 128.558 53.0217V46.8477C128.544 43.4358 125.776 40.6737 122.359 40.6737Z" fill="#141414"/>
<path fill-rule="evenodd" clip-rule="evenodd" d="M111.917 54.5725C113.198 54.5725 114.234 55.6097 114.234 56.889C114.234 58.1683 113.198 59.2054 111.917 59.2054C110.638 59.2054 109.601 58.1683 109.601 56.889C109.601 55.6097 110.638 54.5725 111.917 54.5725ZM107.189 40.674C110.588 40.674 113.343 43.4293 113.343 46.8282C113.343 48.1231 112.952 49.3301 112.259 50.3159C111.399 51.5448 105.982 59.1959 105.982 59.1959L101.035 59.1957C101.035 59.1957 108.668 48.3145 108.902 47.9826C109.131 47.6577 109.227 47.2503 109.227 46.8282C109.227 45.7025 108.314 44.7899 107.189 44.7899C106.063 44.7899 105.15 45.7025 105.15 46.8282H101.035C101.035 43.4293 103.79 40.674 107.189 40.674Z" fill="#141414"/>
</svg>
