<svg width="199" height="101" viewBox="0 0 199 101" fill="none" xmlns="http://www.w3.org/2000/svg">
<g clip-path="url(#clip0_1501_180)">
<path d="M55.8629 64.0348V61.3669C58.413 61.3669 61.2771 60.6215 63.8665 59.3268C62.8072 57.5809 62.2579 55.423 62.3168 52.9905C62.3756 49.4007 64.4943 46.1639 67.5349 44.9476C69.5162 44.163 71.4386 44.3984 72.8118 45.5754C74.2634 46.8309 74.8127 48.9299 74.283 51.1858C73.4395 54.6972 71.0659 57.679 68.0449 59.8957C69.4965 60.8373 71.3798 61.1119 73.4003 60.6999C76.3428 60.0918 78.0298 58.1105 78.9518 56.5804C80.6389 53.736 81.0901 49.8715 80.1288 46.7132C79.3442 44.1434 77.6571 42.1424 75.2443 40.9066C72.3998 39.4549 68.7707 39.298 65.3378 40.475C60.3355 42.2013 55.8825 47.8117 57.8442 56.09L55.2547 56.6981C54.2347 52.3432 54.6859 48.204 56.5691 44.7122C58.2953 41.5147 61.1005 39.1215 64.455 37.9641C68.5745 36.5517 72.9491 36.7674 76.4409 38.5329C79.4619 40.0631 81.6786 42.6917 82.6594 45.9285C83.856 49.8126 83.3068 54.4226 81.247 57.934C79.56 60.8176 77.0294 62.6616 73.9495 63.309C70.8501 63.9563 67.9468 63.3286 65.789 61.5435C65.7301 61.5042 65.6909 61.465 65.632 61.4061C62.513 63.0932 59.0408 64.0348 55.8629 64.0348ZM69.7908 47.1643C69.3985 47.1643 68.9669 47.2624 68.5157 47.439C66.1224 48.4002 65.0043 50.9504 64.9651 53.069C64.9258 54.9914 65.3378 56.6785 66.1421 57.9928C68.8492 56.09 70.9678 53.5398 71.674 50.5777C71.9683 49.3026 71.7525 48.204 71.0659 47.5959C70.7324 47.3017 70.2812 47.1643 69.7908 47.1643Z" fill="#141414"/>
<path d="M89.015 45.1635C89.015 43.0449 90.5059 41.4363 92.7226 41.4363C95.0374 41.4363 96.3713 43.0449 96.3713 45.0654C96.3713 45.2812 96.3713 45.497 96.3321 45.7324H90.8394C90.9571 46.6347 91.6045 47.3409 92.8992 47.3409C93.8015 47.3409 94.3312 46.929 94.6255 46.3993L96.2929 46.8898C95.8809 47.8117 94.7432 48.9103 92.8796 48.9103C90.604 48.9103 89.015 47.4194 89.015 45.1635ZM94.5862 44.575C94.5078 43.7118 93.8212 43.0056 92.7226 43.0056C91.6437 43.0056 90.9375 43.7707 90.8394 44.575H94.5862Z" fill="#141414"/>
<path d="M98.5488 38.4938H100.393V48.7141H98.5488V38.4938Z" fill="#141414"/>
<path d="M102.511 45.1635C102.511 43.0449 104.002 41.4363 106.219 41.4363C108.534 41.4363 109.868 43.0449 109.868 45.0654C109.868 45.2812 109.868 45.497 109.828 45.7324H104.336C104.453 46.6347 105.101 47.3409 106.396 47.3409C107.298 47.3409 107.828 46.929 108.122 46.3993L109.789 46.8898C109.377 47.8117 108.24 48.9103 106.376 48.9103C104.1 48.9103 102.511 47.4194 102.511 45.1635ZM108.063 44.575C107.984 43.7118 107.298 43.0056 106.199 43.0056C105.12 43.0056 104.414 43.7707 104.316 44.575H108.063Z" fill="#141414"/>
<path d="M118.793 41.6324L115.87 48.7141H113.791L110.868 41.6324H112.889L114.831 46.674L116.773 41.6324H118.793V41.6324Z" fill="#141414"/>
<path d="M119.774 45.1635C119.774 43.0056 121.304 41.4363 123.266 41.4363C124.266 41.4363 125.051 41.8482 125.542 42.476V41.6128H127.405V48.6945H125.542V47.8314C125.031 48.4787 124.247 48.8907 123.266 48.8907C121.304 48.9103 119.774 47.3213 119.774 45.1635ZM125.6 45.1635C125.6 43.9472 124.698 43.0841 123.58 43.0841C122.422 43.0841 121.599 43.9472 121.599 45.1635C121.599 46.3993 122.422 47.2625 123.58 47.2625C124.698 47.2625 125.6 46.3797 125.6 45.1635Z" fill="#141414"/>
<path d="M134.428 48.4787C133.859 48.6945 133.369 48.8122 132.78 48.8122C131.152 48.8122 130.406 47.8117 130.406 46.2816V43.2606H129.21V41.6324H130.406V39.3373H132.27V41.6324H134.349V43.2606H132.27V46.3012C132.27 46.8701 132.545 47.2036 133.133 47.2036C133.447 47.2036 133.702 47.1448 133.977 47.0074L134.428 48.4787Z" fill="#141414"/>
<path d="M135.821 45.1635C135.821 43.0449 137.312 41.4363 139.528 41.4363C141.843 41.4363 143.177 43.0449 143.177 45.0654C143.177 45.2812 143.177 45.497 143.138 45.7324H137.645C137.763 46.6347 138.41 47.3409 139.705 47.3409C140.607 47.3409 141.137 46.929 141.431 46.3993L143.099 46.8898C142.687 47.8117 141.549 48.9103 139.685 48.9103C137.41 48.9103 135.821 47.4194 135.821 45.1635ZM141.372 44.575C141.294 43.7118 140.607 43.0056 139.509 43.0056C138.43 43.0056 137.724 43.7707 137.625 44.575H141.372Z" fill="#141414"/>
<path d="M97.0775 58.5029C97.0775 60.6411 95.5474 62.2301 93.5857 62.2301C92.5853 62.2301 91.8006 61.8181 91.2906 61.1708V62.0339H89.4466V51.8136H91.2906V55.7958C91.8006 55.1484 92.5853 54.7561 93.5857 54.7561C95.5474 54.7561 97.0775 56.345 97.0775 58.5029ZM95.2728 58.4833C95.2728 57.267 94.4489 56.4039 93.2915 56.4039C92.1733 56.4039 91.271 57.267 91.271 58.4833C91.271 59.7191 92.1733 60.5823 93.2915 60.5823C94.4293 60.5823 95.2728 59.7191 95.2728 58.4833Z" fill="#141414"/>
<path d="M103.394 54.8542V56.5804C101.884 56.345 101.06 57.0513 101.06 58.9541V62.0339H99.2158V54.9523H101.06V55.9919C101.472 55.1877 102.296 54.6972 103.394 54.8542Z" fill="#141414"/>
<path d="M104.807 58.5029C104.807 56.345 106.337 54.7757 108.298 54.7757C109.299 54.7757 110.083 55.1877 110.574 55.8154V54.9523H112.437V62.0339H110.574V61.1708C110.064 61.8181 109.279 62.2301 108.298 62.2301C106.337 62.2301 104.807 60.6411 104.807 58.5029ZM110.633 58.4833C110.633 57.267 109.73 56.4039 108.612 56.4039C107.455 56.4039 106.631 57.267 106.631 58.4833C106.631 59.7191 107.455 60.5823 108.612 60.5823C109.75 60.5823 110.633 59.7191 110.633 58.4833Z" fill="#141414"/>
<path d="M121.893 57.8948V62.0339H120.049V58.2479C120.049 57.169 119.558 56.4824 118.538 56.4824C117.499 56.4824 116.832 57.2867 116.832 58.5421V62.0339H114.988V54.9523H116.832V55.8546C117.322 55.2269 118.087 54.7561 119.107 54.7561C120.951 54.7561 121.893 56.0116 121.893 57.8948Z" fill="#141414"/>
<path d="M131.584 51.8136V62.0339H129.72V61.1708C129.21 61.8181 128.425 62.2301 127.444 62.2301C125.483 62.2301 123.953 60.6411 123.953 58.5029C123.953 56.345 125.483 54.7757 127.444 54.7757C128.445 54.7757 129.229 55.1877 129.72 55.8154V51.8136H131.584ZM129.779 58.4833C129.779 57.267 128.876 56.4039 127.758 56.4039C126.601 56.4039 125.777 57.267 125.777 58.4833C125.777 59.7191 126.601 60.5823 127.758 60.5823C128.896 60.5823 129.779 59.7191 129.779 58.4833Z" fill="#141414"/>
<path d="M133.526 60.0526L135.193 59.5622C135.428 60.2292 136.095 60.7392 137.037 60.7392C137.743 60.7392 138.214 60.4057 138.214 60.0134C138.214 59.6603 137.939 59.4641 137.429 59.3072L135.625 58.7775C134.624 58.4833 133.879 57.8948 133.879 56.8943C133.879 55.6977 135.173 54.7757 136.723 54.7757C138.253 54.7757 139.411 55.5015 139.862 56.5608L138.234 57.0316C137.979 56.5804 137.469 56.2077 136.723 56.2077C136.154 56.2077 135.723 56.5216 135.723 56.8551C135.723 57.1297 135.919 57.3063 136.311 57.424L138.077 57.934C139.136 58.2479 140.058 58.6794 140.058 59.9545C140.058 61.2885 138.802 62.2693 136.998 62.2693C135.232 62.2301 133.879 61.1904 133.526 60.0526Z" fill="#141414"/>
<path d="M141.961 60.9942C141.961 60.3861 142.471 59.8957 143.099 59.8957C143.726 59.8957 144.236 60.3861 144.236 60.9942C144.236 61.6416 143.726 62.132 143.099 62.132C142.471 62.1516 141.961 61.6416 141.961 60.9942Z" fill="#141414"/>
</g>
<defs>
<clipPath id="clip0_1501_180">
<rect width="89.5311" height="26.9927" fill="white" transform="translate(54.7053 37.0421)"/>
</clipPath>
</defs>
</svg>
