<svg width="199" height="101" viewBox="0 0 199 101" fill="none" xmlns="http://www.w3.org/2000/svg">
<path d="M62.4809 49.3333C62.1289 49.6663 61.6774 49.8325 61.1274 49.8325H59.6683V46.3384H61.1274C61.6774 46.3384 62.1289 46.4983 62.4809 46.818C62.8329 47.1385 63.0089 47.5607 63.0089 48.0852C63.0089 48.5844 62.8329 49.0008 62.4809 49.3333ZM65.5816 50.3606C66.0044 49.7014 66.2154 48.9433 66.2154 48.0852C66.2154 47.4582 66.1006 46.8825 65.8699 46.3573C65.6397 45.8327 65.316 45.3813 64.9001 45.0039C64.4842 44.6261 63.9912 44.3316 63.422 44.1204C62.8519 43.9094 62.2283 43.8036 61.5498 43.8036H56.5382V52.3478H57.5377L56.5382 53.1703V54.1596L58.7397 52.3478H60.7434L63.3161 57.0135H66.7338L63.7963 51.9066C64.5642 51.5351 65.1595 51.0203 65.5816 50.3606Z" fill="#141414"/>
<path d="M138.986 43.8034V50.4087H139.945L138.986 51.1984V51.7904C138.986 51.9356 138.974 52.0745 138.957 52.2107L141.147 50.4087H142.173V43.8034H138.986Z" fill="#141414"/>
<path d="M151.709 56.9921L153.044 55.8933V54.9042L150.507 56.9921H151.709Z" fill="#141414"/>
<path d="M149.834 56.1614L153.021 53.5383V52.5491L149.834 55.1723V56.1614Z" fill="#141414"/>
<path d="M146.022 43.8033V46.4145H149.843V51.4087L151.058 50.4086H152.743L149.843 52.7958V53.785L153.03 51.162V46.4145H156.832V43.8033H146.022Z" fill="#141414"/>
<path d="M138.71 56.8659C139.063 56.7424 139.389 56.5935 139.693 56.422L141.055 55.3005C141.353 54.9524 141.604 54.5682 141.802 54.1396C141.896 53.9342 141.974 53.7214 142.038 53.5027L137.611 57.1459C137.993 57.082 138.359 56.9892 138.71 56.8659Z" fill="#141414"/>
<path d="M136.246 55.8258V54.5544C135.853 54.5534 135.491 54.4869 135.161 54.3534C134.828 54.2194 134.54 54.0308 134.297 53.7875C134.054 53.5447 133.865 53.2532 133.731 52.9138C133.597 52.575 133.529 52.2005 133.529 51.7905V43.8031H130.323V52.0211C130.323 52.789 130.469 53.4929 130.764 54.1331C131.058 54.7733 131.468 55.3232 131.993 55.7844C132.518 56.2451 133.142 56.6035 133.865 56.8594C134.586 57.1145 135.379 57.2424 136.246 57.2432V56.815H136.246L142.17 51.9398V50.9508L136.246 55.8258Z" fill="#141414"/>
<path d="M123.042 48.7202C123.126 48.9746 123.189 49.2428 123.23 49.5247L125.938 47.2962C125.829 47.0555 125.707 46.8261 125.574 46.6066L123.034 48.6972C123.036 48.7052 123.04 48.7123 123.042 48.7202Z" fill="#141414"/>
<path d="M122.306 47.4205C122.379 47.5114 122.449 47.6068 122.514 47.7064L124.895 45.7467C124.818 45.6594 124.74 45.574 124.658 45.4913C124.559 45.3917 124.457 45.297 124.352 45.2045L122.025 47.1195C122.124 47.2135 122.219 47.3124 122.306 47.4205Z" fill="#141414"/>
<path d="M121.153 46.5392L123.532 44.5812C123.299 44.4389 123.054 44.3106 122.799 44.1955L120.23 46.3094C120.556 46.3389 120.863 46.4168 121.153 46.5392Z" fill="#141414"/>
<path d="M125.106 50.4143L126.539 49.23C126.498 48.9397 126.441 48.6571 126.368 48.3822L123.899 50.4139L123.34 50.4143C123.34 51.0291 123.256 51.5888 123.09 52.0943C122.924 52.5999 122.693 53.0354 122.399 53.3999C122.104 53.7652 121.746 54.05 121.324 54.2547C120.901 54.4595 120.44 54.5619 119.941 54.5619C119.442 54.5619 118.984 54.4595 118.568 54.2547C118.152 54.05 117.794 53.7652 117.493 53.3999C117.192 53.0354 116.959 52.5999 116.792 52.0943C116.626 51.5888 116.542 51.0291 116.542 50.4143C116.542 49.7999 116.626 49.2398 116.792 48.7341C116.959 48.2286 117.192 47.7937 117.493 47.4285C117.794 47.0638 118.152 46.7792 118.568 46.5744C118.984 46.3697 119.442 46.2673 119.941 46.2673C119.944 46.2673 119.947 46.2678 119.947 46.2678L119.949 45.1517L121.63 43.7654C121.305 43.69 120.969 43.6372 120.62 43.608L119.95 44.1625L119.95 43.5793C119.95 43.5793 119.944 43.579 119.941 43.579C118.968 43.579 118.072 43.7491 117.253 44.0879C116.434 44.4266 115.73 44.8972 115.141 45.4994C114.552 46.1005 114.094 46.8206 113.768 47.6592C113.441 48.4972 113.278 49.4157 113.278 50.4143C113.278 51.4127 113.441 52.3313 113.768 53.1699C114.094 54.008 114.552 54.7281 115.141 55.3298C115.73 55.9313 116.434 56.4018 117.253 56.7411C118.072 57.08 118.968 57.2495 119.941 57.2495C120.927 57.2495 121.826 57.08 122.639 56.7411C123.452 56.4018 124.155 55.9313 124.751 55.3298C125.346 54.7281 125.807 54.008 126.133 53.1699C126.459 52.3313 126.623 51.4127 126.623 50.4143H125.106Z" fill="#141414"/>
<path d="M102.696 57.0258V56.1382L101.617 57.0258H102.696Z" fill="#141414"/>
<path d="M99.5978 57.0469H99.964L102.728 54.7722V53.783L99.5978 56.3592V57.0469Z" fill="#141414"/>
<path d="M110.849 43.8035H107.105L102.728 48.93V43.8035H99.5978V52.5626L100.698 51.6569H102.383L99.5978 53.9496V54.9387L102.728 52.3626V51.6569L107.221 57.0134H111.022L105.358 50.2931L110.849 43.8035Z" fill="#141414"/>
<path d="M87.7897 51.9061L88.1428 50.9422L86.9719 51.9061H85.2868L88.8707 48.9564L89.3489 47.6515L90.8812 51.9061H87.7897ZM87.9628 43.803L87.2972 45.499L88.2818 44.6886L88.666 45.7554L86.4931 47.5477L85.9196 49.009L88.9409 46.5183L89.3274 47.5914L85.1155 51.0577L82.7782 57.0129H85.9082L86.9068 54.2867H91.7641L92.7822 57.0129H95.8927L90.7277 43.803H87.9628Z" fill="#141414"/>
<path d="M71.1166 47.4364L72.3367 46.4145H74.0437L71.1166 48.8235V49.0453H71.1167H71.1166V52.1891L71.8801 51.5607H73.5654L71.1166 53.576V57.0132H79.6033V54.402H74.3233V53.313L73.0002 54.402H71.3151L74.3233 51.9261V51.5607H79.6033V49.0453H74.323H74.3233V48.5607L73.7342 49.0453H72.049L74.3233 47.1736V46.4145H79.6033V43.8033H71.1166V47.4364Z" fill="#141414"/>
<path d="M58.8678 57.008L59.6196 56.3945V55.4089L57.6596 57.008H58.8678Z" fill="#141414"/>
<path d="M56.5382 56.564L59.6683 53.9879V52.9986L56.5382 55.5749V56.564Z" fill="#141414"/>
<path d="M45.1267 53.0546L42.0737 55.5673V56.5566L45.1267 54.0439V53.0546Z" fill="#141414"/>
<path d="M42.0737 43.8036V44.6449L43.0959 43.8036H42.0737Z" fill="#141414"/>
<path d="M49.7925 50.2553C50.3303 50.012 50.7525 49.6342 51.0596 49.1221C51.3668 48.6103 51.5203 48.0277 51.5203 47.3748C51.5203 46.863 51.4214 46.3895 51.223 45.9541C51.0245 45.5192 50.7463 45.1414 50.3878 44.821C50.0294 44.5013 49.6067 44.2516 49.1208 44.0728C48.6341 43.8933 48.0963 43.8036 47.5079 43.8036H44.781L42.0737 46.0319V47.021L45.1267 44.5084V45.8952L42.0737 48.408V49.3973L45.1267 46.8845V46.2613H46.9127C47.3601 46.2613 47.7317 46.393 48.0261 46.6547C48.3206 46.9176 48.4679 47.2598 48.4679 47.682C48.4679 48.0921 48.3206 48.4308 48.0261 48.6999C47.7317 48.9686 47.3601 49.1031 46.9127 49.1031H45.1267V48.2714L42.0737 50.7842V51.7734L45.1267 49.2607V50.6478L42.0737 53.1604V54.1497L45.1267 51.637V51.4838H47.1812C47.6679 51.4838 48.0677 51.6277 48.381 51.9158C48.6951 52.2039 48.8516 52.572 48.8516 53.0201C48.8516 53.4682 48.6951 53.8357 48.381 54.1239C48.0677 54.4116 47.6679 54.5558 47.1812 54.5558H45.1267V55.4001L43.1662 57.0135H44.3683L45.1267 56.3893V56.3892V57.0135H47.845C48.4478 57.0135 49.0027 56.9244 49.5096 56.7449C50.0157 56.5655 50.4522 56.3129 50.8176 55.9863C51.1828 55.6602 51.4685 55.2696 51.6739 54.8153C51.8787 54.3609 51.9817 53.8651 51.9817 53.3273C51.9817 52.6232 51.7907 51.9992 51.4099 51.4551C51.0291 50.911 50.4896 50.5112 49.7925 50.2553Z" fill="#141414"/>
</svg>
