<svg width="198" height="100" viewBox="0 0 198 100" fill="none" xmlns="http://www.w3.org/2000/svg">
<path d="M108.851 33.4106L104.477 40.9709L100.104 33.4106L95.7298 41.0334L95.73 41.0336H95.7296L91.3251 33.4112H91.2938L82.5463 48.5631V48.5944H88.3884H91.3563L91.3565 48.5939H94.7901V48.5944H99.8415H102.685H105.255V48.5939H108.883V48.5938H111.757H117.599L108.851 33.4106Z" fill="#141414"/>
<path d="M34.715 59.091C33.3716 58.7786 33.028 58.5599 33.028 58.1225V58.0913C33.028 57.7476 33.3404 57.4664 33.9965 57.4664C34.8712 57.4664 35.8397 57.8101 36.7457 58.4349L38.1203 56.4979C37.0269 55.6232 35.746 55.1858 34.059 55.1858C31.6846 55.1858 30.2475 56.4979 30.2475 58.3412V58.3724C30.2475 60.4031 31.8721 60.9966 33.9652 61.4653C35.3086 61.7777 35.621 61.9964 35.621 62.4025V62.4337C35.621 62.8711 35.2149 63.1211 34.4963 63.1211C33.3717 63.1211 32.2782 62.7149 31.3097 61.9339L29.7789 63.7459C30.9973 64.808 32.6531 65.3704 34.4026 65.3704C36.7769 65.3704 38.3702 64.152 38.3702 62.1526C38.3702 60.3094 36.9644 59.5908 34.715 59.0909V59.091Z" fill="#141414"/>
<path d="M44.6506 62.9024C43.276 62.9024 42.3075 61.7465 42.3075 60.2782V60.247C42.3075 58.8099 43.276 57.654 44.6506 57.654C45.5878 57.654 46.2439 58.1226 46.8062 58.8099L48.8681 57.2166C47.9934 55.9982 46.6813 55.1546 44.6818 55.1546C41.7139 55.1546 39.4958 57.404 39.4958 60.3095C39.4958 63.2461 41.7451 65.4018 44.5569 65.4018C46.7438 65.4018 47.9934 64.4645 48.9306 63.1836L46.8687 61.7153C46.2751 62.4338 45.6815 62.9024 44.6506 62.9024V62.9024Z" fill="#141414"/>
<path d="M56.459 59.06H52.9601V55.3735H50.2421V65.2145H52.9601V61.4656H56.459V65.2145H59.177V55.3735H56.459V59.06Z" fill="#141414"/>
<path d="M66.0497 55.1546C63.0193 55.1546 60.7387 57.4665 60.7387 60.3095C60.7387 63.1211 62.9881 65.4018 66.0184 65.4018C69.0488 65.4018 71.3295 63.0899 71.3295 60.2782V60.247C71.3295 57.4353 69.08 55.1546 66.0497 55.1546V55.1546ZM66.0497 62.9337C64.5501 62.9337 63.5191 61.684 63.5191 60.2782V60.247C63.5191 58.8411 64.5189 57.6227 66.0184 57.6227C67.518 57.6227 68.549 58.8724 68.549 60.3095C68.549 61.7153 67.5493 62.9337 66.0497 62.9337Z" fill="#141414"/>
<path d="M77.8586 55.1546C74.8282 55.1546 72.5475 57.4665 72.5475 60.3095C72.5475 63.1211 74.7969 65.4018 77.8273 65.4018C80.8577 65.4018 83.1383 63.0899 83.1383 60.2782V60.247C83.1383 57.404 80.8889 55.1546 77.8586 55.1546V55.1546ZM77.8898 62.9337C76.3902 62.9337 75.3593 61.684 75.3593 60.2782V60.247C75.3593 58.8411 76.359 57.6227 77.8586 57.6227C79.3582 57.6227 80.3891 58.8724 80.3891 60.3095C80.3891 61.7153 79.3894 62.9337 77.8898 62.9337H77.8898Z" fill="#141414"/>
<path d="M87.4498 55.3735H84.7318V65.1833H92.2297V62.8089H87.4498V55.3735Z" fill="#141414"/>
<path d="M97.2289 57.0918C95.323 57.0918 93.9173 58.4977 93.9173 60.2785C93.9173 62.0279 95.2917 63.465 97.1975 63.465C99.1033 63.465 100.509 62.0279 100.509 60.2785V60.2472C100.509 58.4977 99.1341 57.0918 97.2289 57.0918V57.0918ZM97.2289 61.9342C96.2913 61.9342 95.6669 61.1532 95.6669 60.2785V60.2472C95.6669 59.3724 96.2913 58.6227 97.2289 58.6227C98.1658 58.6227 98.7909 59.3724 98.7909 60.2785C98.7909 61.1532 98.1658 61.9342 97.2289 61.9342Z" fill="#141414"/>
<path d="M101.509 63.3397H103.196V61.1529H106.101V59.747H103.196V58.7161H106.382V57.2166H101.509V63.3397Z" fill="#141414"/>
<path d="M114.567 59.1849L112.224 55.3735H109.381V65.2145H112.037V59.5911L114.536 63.4025H114.599L117.067 59.5598V65.2145H119.785V55.3735H116.911L114.567 59.1849Z" fill="#141414"/>
<path d="M126.689 55.1546C123.659 55.1546 121.378 57.4665 121.378 60.3095C121.378 63.1211 123.627 65.4018 126.658 65.4018C129.688 65.4018 131.969 63.0899 131.969 60.2782V60.247C131.969 57.404 129.72 55.1546 126.689 55.1546V55.1546ZM126.689 62.9337C125.189 62.9337 124.158 61.684 124.158 60.2782V60.247C124.158 58.8411 125.158 57.6227 126.658 57.6227C128.158 57.6227 129.188 58.8724 129.188 60.3095C129.188 61.7153 128.188 62.9337 126.689 62.9337V62.9337Z" fill="#141414"/>
<path d="M132.562 57.7478H135.499H135.53V65.1833H138.248V57.7478H141.185V55.3735H132.562V57.7478Z" fill="#141414"/>
<path d="M145.339 55.3735H142.59V65.2145H145.339V55.3735Z" fill="#141414"/>
<path d="M152.244 55.1546C149.214 55.1546 146.933 57.4665 146.933 60.3095C146.933 63.1211 149.182 65.4018 152.213 65.4018C155.243 65.4018 157.524 63.0899 157.524 60.2782V60.247C157.524 57.404 155.275 55.1546 152.244 55.1546V55.1546ZM152.244 62.9337C150.744 62.9337 149.714 61.684 149.714 60.2782V60.247C149.714 58.8411 150.714 57.6227 152.213 57.6227C153.713 57.6227 154.744 58.8724 154.744 60.3095C154.744 61.7153 153.744 62.9337 152.244 62.9337V62.9337Z" fill="#141414"/>
<path d="M165.678 55.3735V60.5596L161.616 55.3735H159.085V65.2145H161.772V59.8098L165.99 65.2145H168.364V55.3735H165.678Z" fill="#141414"/>
</svg>
