<svg width="198" height="100" viewBox="0 0 198 100" fill="none" xmlns="http://www.w3.org/2000/svg">
<path d="M66.2105 49.8486V39.687H69.5386V45.6109H69.5829C70.2633 44.6643 71.3061 44.1909 72.7113 44.1909C73.3177 44.1909 73.9168 44.3093 74.5084 44.5459C75.1149 44.7678 75.677 45.1006 76.1946 45.5443C76.7271 45.9881 77.1561 46.5945 77.4815 47.3637C77.8069 48.1328 77.9696 48.9981 77.9696 49.9595C77.9696 51.631 77.4149 53.0139 76.3056 54.1085C75.211 55.1883 73.7985 55.7281 72.0679 55.7281C70.3225 55.7281 68.9099 55.1957 67.8302 54.1307C66.7504 53.0657 66.2105 51.6384 66.2105 49.8486ZM70.2264 51.8898C70.6997 52.3779 71.3135 52.622 72.0679 52.622C72.8222 52.622 73.4287 52.3779 73.8872 51.8898C74.3605 51.3869 74.5972 50.7435 74.5972 49.9595C74.5972 49.1756 74.3605 48.5396 73.8872 48.0515C73.4287 47.5486 72.8222 47.2971 72.0679 47.2971C71.3135 47.2971 70.6997 47.5486 70.2264 48.0515C69.7678 48.5396 69.5386 49.1756 69.5386 49.9595C69.5386 50.7435 69.7678 51.3869 70.2264 51.8898Z" fill="#141414"/>
<path d="M88.6725 49.2939H85.3445V49.2052C85.3445 47.9331 84.812 47.2971 83.747 47.2971C82.6821 47.2971 82.1496 47.9331 82.1496 49.2052V55.4397H78.8215V49.2052C78.8215 47.5486 79.2579 46.2987 80.1306 45.4556C81.0181 44.6125 82.2235 44.1909 83.747 44.1909C85.2705 44.1909 86.4686 44.6199 87.3413 45.4778C88.2288 46.3209 88.6725 47.5929 88.6725 49.2939Z" fill="#141414"/>
<path d="M92.8803 42.8819C92.4661 43.2813 91.9632 43.481 91.3715 43.481C90.7799 43.481 90.277 43.2813 89.8628 42.8819C89.4487 42.4678 89.2416 41.9575 89.2416 41.351C89.2416 40.7446 89.4487 40.2417 89.8628 39.8423C90.277 39.4281 90.7799 39.2211 91.3715 39.2211C91.9632 39.2211 92.4661 39.4281 92.8803 39.8423C93.2944 40.2417 93.5015 40.7446 93.5015 41.351C93.5015 41.9575 93.2944 42.4678 92.8803 42.8819ZM93.0356 55.4397H89.7075V44.4794H93.0356V55.4397Z" fill="#141414"/>
<path d="M105.999 39.687V49.8486C105.999 51.6384 105.459 53.0657 104.379 54.1307C103.299 55.1957 101.887 55.7281 100.141 55.7281C98.4109 55.7281 96.9909 55.1883 95.8816 54.1085C94.787 53.0139 94.2397 51.631 94.2397 49.9595C94.2397 48.9981 94.4024 48.1328 94.7278 47.3637C95.0532 46.5945 95.4748 45.9881 95.9925 45.5443C96.525 45.1006 97.0871 44.7678 97.6787 44.5459C98.2851 44.3093 98.8916 44.1909 99.498 44.1909C100.903 44.1909 101.946 44.6643 102.626 45.6109H102.671V39.687H105.999ZM98.2999 51.8898C98.7733 52.3779 99.3871 52.622 100.141 52.622C100.896 52.622 101.502 52.3779 101.961 51.8898C102.434 51.3869 102.671 50.7435 102.671 49.9595C102.671 49.1756 102.434 48.5396 101.961 48.0515C101.502 47.5486 100.896 47.2971 100.141 47.2971C99.3871 47.2971 98.7733 47.5486 98.2999 48.0515C97.8414 48.5396 97.6121 49.1756 97.6121 49.9595C97.6121 50.7435 97.8414 51.3869 98.2999 51.8898Z" fill="#141414"/>
<path d="M115.282 54.7075V54.1307H115.237C114.557 55.0773 113.514 55.5507 112.109 55.5507C111.488 55.5507 110.881 55.4471 110.29 55.24C109.698 55.033 109.136 54.7223 108.604 54.3082C108.086 53.8792 107.664 53.2876 107.339 52.5332C107.013 51.7789 106.851 50.921 106.851 49.9595C106.851 48.2881 107.398 46.9125 108.493 45.8328C109.602 44.7382 111.022 44.1909 112.752 44.1909C114.498 44.1909 115.91 44.7234 116.99 45.7884C118.07 46.8534 118.61 48.2807 118.61 50.0705V54.5966C118.61 56.5786 118.07 58.043 116.99 58.9896C115.91 59.9363 114.513 60.4096 112.797 60.4096C111.347 60.4096 110.127 60.0842 109.136 59.4334C108.145 58.7826 107.487 57.8063 107.161 56.5047H110.534C110.859 57.1851 111.606 57.5253 112.775 57.5253C113.618 57.5253 114.246 57.3108 114.661 56.8819C115.075 56.4529 115.282 55.7281 115.282 54.7075ZM114.594 51.8011C115.053 51.3573 115.282 50.7435 115.282 49.9595C115.282 49.1756 115.045 48.5396 114.572 48.0515C114.113 47.5486 113.507 47.2971 112.752 47.2971C111.998 47.2971 111.384 47.5486 110.911 48.0515C110.452 48.5396 110.223 49.1756 110.223 49.9595C110.223 50.7435 110.452 51.3573 110.911 51.8011C111.369 52.23 111.983 52.4445 112.752 52.4445C113.522 52.4445 114.135 52.23 114.594 51.8011Z" fill="#141414"/>
<path d="M131.199 50.8914H122.923V50.9358C123.219 52.1487 124.032 52.7551 125.363 52.7551C126.384 52.7551 127.079 52.4889 127.449 51.9564H130.888C130.533 53.0953 129.86 54.0124 128.869 54.7075C127.878 55.3879 126.71 55.7281 125.363 55.7281C123.633 55.7281 122.213 55.1883 121.104 54.1085C120.009 53.0139 119.462 51.631 119.462 49.9595C119.462 48.2881 120.009 46.9125 121.104 45.8328C122.213 44.7382 123.633 44.1909 125.363 44.1909C127.079 44.1909 128.477 44.7382 129.557 45.8328C130.651 46.9125 131.199 48.2881 131.199 49.9595V50.8914ZM127.782 48.7393C127.397 47.6891 126.591 47.164 125.363 47.164C124.136 47.164 123.344 47.6891 122.989 48.7393V48.7836H127.782V48.7393Z" fill="#141414"/>
</svg>
