<svg width="198" height="100" viewBox="0 0 198 100" fill="none" xmlns="http://www.w3.org/2000/svg">
<path d="M62.2261 58.0343C62.2261 59.6534 61.881 61.1914 61.2609 62.5805H55.3549C55.975 61.1914 56.32 59.6534 56.32 58.0343C56.32 55.6214 55.5556 53.3888 54.2567 51.5645C53.6951 50.7775 53.0344 50.0649 52.2947 49.4492C53.0367 48.8336 53.6951 48.121 54.2567 47.334C55.5556 45.5096 56.32 43.2749 56.32 40.8642C56.32 39.245 55.975 37.7071 55.3549 36.318H61.2609C61.881 37.7071 62.2261 39.245 62.2261 40.8642C62.2261 44.3144 60.6588 47.4016 58.1985 49.4515C60.6588 51.4991 62.2261 54.5863 62.2261 58.0388V58.0343Z" fill="#141414"/>
<path d="M79.5833 37.1142V41.4732H64.1496C64.1609 41.2702 64.1654 41.0673 64.1654 40.8621C64.1654 39.2429 63.8203 37.705 63.2002 36.3159H78.785C79.2247 36.3159 79.5833 36.6722 79.5833 37.1142V37.1142Z" fill="#141414"/>
<path d="M79.5833 43.3517V48.5091H61.1346C62.4718 47.0884 63.437 45.3182 63.8858 43.3517H79.5833Z" fill="#141414"/>
<path d="M79.5833 50.3897V55.547H63.888C63.4393 53.5806 62.4718 51.8104 61.1368 50.3897H79.5833Z" fill="#141414"/>
<path d="M79.581 57.4233L74.4259 62.5829H63.2002C63.8181 61.1938 64.1631 59.6558 64.1631 58.0344C64.1631 57.8292 64.1586 57.6262 64.1473 57.4233H79.581Z" fill="#141414"/>
<path d="M79.5811 57.4234L74.426 62.583V58.2329C74.426 57.7864 74.7868 57.4234 75.2333 57.4234H79.5811Z" fill="#141414"/>
<path d="M91.2408 48.0384H92.5287V46.2893H91.6287C90.7442 46.2893 90.2632 45.7693 90.2632 44.808V41.4516H92.4666V39.734H90.3252V37.5752H88.4011V38.8831C88.4011 39.4504 88.1373 39.734 87.5942 39.734H86.8494V41.4516H88.277V45.0287C88.277 46.8566 89.2856 48.0384 91.2408 48.0384Z" fill="#141414"/>
<path d="M98.1087 39.5449C97.0535 39.5449 96.2001 39.9389 95.6415 40.5219V36.5194H93.6708V48.0384H95.6415V43.0432C95.657 42.1135 96.4639 41.3413 97.5346 41.3256C98.6518 41.3256 99.3811 42.0347 99.3811 43.2323V48.0384H101.367V42.8541C101.367 40.8844 100.126 39.5449 98.1087 39.5449Z" fill="#141414"/>
<path d="M104.586 44.5244H110.932C110.963 44.3511 110.979 44.0359 110.979 43.7208C110.979 41.5935 109.411 39.5449 106.836 39.5449C104.492 39.5449 102.646 41.4832 102.646 43.8941C102.646 46.3681 104.353 48.2433 106.96 48.2433C108.946 48.2433 110.032 47.3923 110.653 46.3681L109.101 45.3596C108.729 46.1002 108.139 46.5257 107.022 46.5257C105.796 46.5257 104.849 45.7693 104.586 44.5244ZM104.586 43.122C104.834 41.8456 105.734 41.1207 106.882 41.1207C108.03 41.1207 108.868 41.8771 109.086 43.122H104.586Z" fill="#141414"/>
<path d="M92.1718 54.1642C91.0856 54.1642 90.2011 54.5739 89.5649 55.2673V51.1387H87.5942V62.6577H89.4252V61.6019C90.0614 62.3898 90.977 62.8468 92.1252 62.8468C94.4683 62.8468 96.1752 60.9874 96.1752 58.5134C96.1752 56.0236 94.5149 54.1642 92.1718 54.1642ZM91.8614 61.0819C90.4494 61.0819 89.4873 60.0261 89.4873 58.5134C89.4873 56.9849 90.4494 55.9449 91.8614 55.9449C93.2114 55.9449 94.2046 57.0321 94.2046 58.5134C94.2046 59.9946 93.2114 61.0819 91.8614 61.0819Z" fill="#141414"/>
<path d="M101.522 62.8468C104.067 62.8468 105.882 60.9874 105.882 58.5134C105.882 56.0236 104.067 54.1642 101.522 54.1642C98.9614 54.1642 97.1614 56.0236 97.1614 58.5134C97.1614 60.9874 98.9614 62.8468 101.522 62.8468ZM101.537 61.0662C100.11 61.0662 99.1321 59.9946 99.1321 58.5134C99.1321 57.0164 100.11 55.9606 101.537 55.9606C102.949 55.9606 103.896 57.0164 103.896 58.4976C103.896 59.9946 102.934 61.0662 101.537 61.0662Z" fill="#141414"/>
<path d="M111.235 62.8468C113.78 62.8468 115.596 60.9874 115.596 58.5134C115.596 56.0236 113.78 54.1642 111.235 54.1642C108.675 54.1642 106.875 56.0236 106.875 58.5134C106.875 60.9874 108.675 62.8468 111.235 62.8468ZM111.251 61.0662C109.823 61.0662 108.846 59.9946 108.846 58.5134C108.846 57.0164 109.823 55.9606 111.251 55.9606C112.663 55.9606 113.609 57.0164 113.609 58.4976C113.609 59.9946 112.647 61.0662 111.251 61.0662Z" fill="#141414"/>
<path d="M124.44 62.6577L120.871 58.1825L124.378 54.3533H122.144L118.978 57.7097V51.1387H117.007V62.6577H118.978V58.7498L122.283 62.6577H124.44Z" fill="#141414"/>
<path d="M125.266 62.6577H127.237V51.1387H125.266V62.6577Z" fill="#141414"/>
<path d="M130.063 53.0297C130.823 53.0297 131.413 52.4781 131.413 51.706C131.413 50.9339 130.823 50.3508 130.063 50.3508C129.302 50.3508 128.713 50.9339 128.713 51.706C128.713 52.4781 129.302 53.0297 130.063 53.0297ZM129.07 62.6577H131.04V54.3533H129.07V62.6577Z" fill="#141414"/>
<path d="M135.759 62.8468C137.808 62.8468 139.142 61.8698 139.142 60.2152C139.142 57.174 134.658 58.0406 134.658 56.5279C134.658 56.0236 135.046 55.7085 135.775 55.7085C136.458 55.7085 136.939 56.0079 137.156 56.6382L138.878 55.9606C138.537 54.8261 137.389 54.1642 135.806 54.1642C133.882 54.1642 132.64 55.1097 132.64 56.6224C132.64 59.4746 137.125 58.7182 137.125 60.357C137.125 60.9401 136.628 61.271 135.837 61.271C134.844 61.271 134.208 60.814 133.975 60.0419L132.252 60.7195C132.702 62.1219 133.99 62.8468 135.759 62.8468Z" fill="#141414"/>
<path d="M143.975 62.6577H145.263V60.9086H144.363C143.479 60.9086 142.998 60.3886 142.998 59.4273V56.0709H145.201V54.3533H143.06V52.1945H141.136V53.5024C141.136 54.0697 140.872 54.3533 140.329 54.3533H139.584V56.0709H141.011V59.6479C141.011 61.4759 142.02 62.6577 143.975 62.6577Z" fill="#141414"/>
</svg>
