<svg width="199" height="101" viewBox="0 0 199 101" fill="none" xmlns="http://www.w3.org/2000/svg">
<path d="M57.9398 57.3789C59.8229 57.3789 61.184 56.833 62.2095 55.7996C63.1231 54.8832 63.7198 53.6158 63.813 52.2314H60.5128C60.3636 53.5768 59.3941 54.5517 57.9211 54.5517C55.9447 54.5517 54.7141 52.6993 54.7141 50.145C54.7141 47.6102 55.7396 45.7189 57.9025 45.7189C59.3195 45.7189 60.2518 46.6743 60.4196 47.9222H63.7198C63.552 46.3623 62.8808 44.9975 61.7247 44.081C60.7738 43.3206 59.4687 42.8526 57.9211 42.8526C53.9497 42.8526 51.358 45.9919 51.358 50.145C51.358 54.3177 54.0242 57.3789 57.9398 57.3789Z" fill="#141414"/>
<path d="M64.8226 57.067H67.8991V43.1256H64.8226V57.067Z" fill="#141414"/>
<path d="M74.0356 57.3594C75.2475 57.3594 76.2171 57.028 77.0188 56.443C77.8579 55.8386 78.4172 54.9806 78.6223 54.0837H75.6577C75.3967 54.7077 74.8746 55.0781 74.0729 55.0781C72.8236 55.0781 72.1151 54.2397 71.9287 52.8943H78.7901C78.8088 50.8665 78.2494 49.1311 77.112 48.0392C76.2917 47.2593 75.2102 46.7913 73.8491 46.7913C70.9405 46.7913 68.9454 49.0726 68.9454 52.0559C68.9454 55.0781 70.8845 57.3594 74.0356 57.3594ZM71.9473 51.003C72.1524 49.8136 72.7491 49.0531 73.9051 49.0531C74.8933 49.0531 75.6018 49.8136 75.7137 51.003H71.9473Z" fill="#141414"/>
<path d="M82.623 57.3205C84.0587 57.3205 84.8978 56.794 85.4571 55.9556H85.4944C85.569 56.4625 85.6622 56.8525 85.8114 57.067H88.7573V56.9305C88.4963 56.755 88.4217 56.3065 88.4217 55.5071V50.4765C88.4217 49.2286 88.0302 48.2537 87.2098 47.6297C86.5199 47.0838 85.5503 46.8108 84.1147 46.8108C81.2246 46.8108 79.8635 48.3902 79.789 50.2425H82.5857C82.679 49.4041 83.1637 48.9556 84.1333 48.9556C85.0469 48.9556 85.4385 49.3846 85.4385 50.028C85.4385 50.7105 84.8045 50.9055 83.0146 51.1395C81.0382 51.4124 79.3601 52.0754 79.3601 54.2787C79.3601 56.248 80.7212 57.3205 82.623 57.3205ZM83.5926 55.2926C82.8468 55.2926 82.2874 54.9806 82.2874 54.1812C82.2874 53.4208 82.7722 53.1088 83.9468 52.8358C84.5621 52.6798 85.1215 52.5238 85.5131 52.3094V53.4988C85.5131 54.5712 84.73 55.2926 83.5926 55.2926Z" fill="#141414"/>
<path d="M89.895 57.067H92.9342V52.5823C92.9342 50.418 94.1275 49.4626 95.992 49.7356H96.0666V47.0058C95.9361 46.9473 95.7496 46.9278 95.4699 46.9278C94.3139 46.9278 93.5308 47.4543 92.8596 48.6437H92.8036V47.0838H89.895V57.067Z" fill="#141414"/>
<path d="M99.4686 57.067H102.284L103.421 52.5433C103.626 51.7634 103.85 50.7495 103.85 50.7495H103.888C103.888 50.7495 104.093 51.7634 104.298 52.5433L105.416 57.067H108.269L111.196 47.0838H108.195L107.132 51.2174C106.927 52.0169 106.684 53.1673 106.684 53.1673H106.647C106.647 53.1673 106.405 52.0169 106.2 51.159L105.155 47.0838H102.582L101.576 51.159C101.37 51.9974 101.147 53.1478 101.147 53.1478H101.109C101.109 53.1478 100.886 52.0169 100.681 51.2174L99.6364 47.0838H96.5413L99.4686 57.067Z" fill="#141414"/>
<path d="M116.206 55.1171C114.882 55.1171 114.192 53.9082 114.192 52.0949C114.192 50.2815 114.882 49.0531 116.206 49.0531C117.53 49.0531 118.238 50.2815 118.238 52.0949C118.238 53.9082 117.53 55.1171 116.206 55.1171ZM116.225 57.3789C119.301 57.3789 121.315 55.0976 121.315 52.0949C121.315 49.0921 119.301 46.8108 116.225 46.8108C113.167 46.8108 111.116 49.0921 111.116 52.0949C111.116 55.0976 113.167 57.3789 116.225 57.3789Z" fill="#141414"/>
<path d="M122.342 57.067H125.381V52.5823C125.381 50.418 126.575 49.4626 128.439 49.7356H128.514V47.0058C128.383 46.9473 128.197 46.9278 127.917 46.9278C126.761 46.9278 125.978 47.4543 125.307 48.6437H125.251V47.0838H122.342V57.067Z" fill="#141414"/>
<path d="M129.48 57.067H132.482V54.0057L133.395 52.9918L135.689 57.067H139.213L135.465 50.8275L138.821 47.0838H135.316L132.482 50.457V43.1256H129.48V57.067Z" fill="#141414"/>
<path d="M143.614 57.3789C146.112 57.3789 147.958 56.248 147.958 54.0642C147.958 51.5099 145.982 51.0615 144.303 50.769C143.092 50.535 142.01 50.4375 142.01 49.7356C142.01 49.1116 142.588 48.8191 143.334 48.8191C144.173 48.8191 144.751 49.0921 144.863 49.989H147.66C147.51 48.0197 146.056 46.7913 143.353 46.7913C141.097 46.7913 139.232 47.8832 139.232 49.989C139.232 52.3289 141.003 52.7968 142.663 53.0893C143.931 53.3233 145.087 53.4208 145.087 54.3177C145.087 54.9611 144.509 55.3121 143.595 55.3121C142.588 55.3121 141.954 54.8247 141.842 53.8302H138.971C139.064 56.0336 140.817 57.3789 143.614 57.3789Z" fill="#141414"/>
</svg>
