<svg width="195" height="194" viewBox="0 0 195 194" fill="none" xmlns="http://www.w3.org/2000/svg">
<rect x="0.697144" width="193.985" height="193.985" rx="96.9927" fill="white"/>
<path d="M148.61 80.6052L144.833 87.2354L141.058 80.6052L137.281 87.2903L137.281 87.2904H137.281L133.478 80.6058H133.451L125.899 93.8936V93.921H130.943H133.505L133.505 93.9206H136.47V93.921H140.831H143.286H145.505V93.9205H148.637V93.9205H151.118H156.162L148.61 80.6052Z" fill="black"/>
<path d="M45.4737 85.3689C43.6414 84.9429 43.1727 84.6445 43.1727 84.048V84.0055C43.1727 83.5367 43.5988 83.1532 44.4936 83.1532C45.6868 83.1532 47.0077 83.6219 48.2434 84.4741L50.1184 81.8321C48.627 80.639 46.8799 80.0426 44.5789 80.0426C41.3404 80.0426 39.3802 81.8321 39.3802 84.3463V84.3889C39.3802 87.1587 41.5961 87.9683 44.451 88.6074C46.2833 89.0335 46.7094 89.3318 46.7094 89.8859V89.9284C46.7094 90.525 46.1555 90.8659 45.1754 90.8659C43.6414 90.8659 42.15 90.312 40.829 89.2466L38.7411 91.7181C40.4029 93.1669 42.6613 93.9339 45.0476 93.9339C48.286 93.9339 50.4592 92.2721 50.4592 89.5449C50.4592 87.0309 48.5417 86.0507 45.4737 85.3689Z" fill="black"/>
<path d="M59.0251 90.5677C57.1503 90.5677 55.8292 88.9911 55.8292 86.9884V86.9458C55.8292 84.9856 57.1503 83.4091 59.0251 83.4091C60.3034 83.4091 61.1984 84.0481 61.9652 84.9856L64.7778 82.8124C63.5846 81.1506 61.7949 80 59.0677 80C55.0197 80 51.9943 83.0681 51.9943 87.031C51.9943 91.0365 55.0622 93.9767 58.8973 93.9767C61.8801 93.9767 63.5846 92.6983 64.863 90.9513L62.0506 88.9485C61.2409 89.9285 60.4314 90.5677 59.0251 90.5677Z" fill="black"/>
<path d="M75.1313 85.3266H70.359V80.2985H66.6517V93.7211H70.359V88.6078H75.1313V93.7211H78.8386V80.2985H75.1313V85.3266Z" fill="black"/>
<path d="M88.2129 80C84.0796 80 80.9689 83.1533 80.9689 87.031C80.9689 90.8659 84.0369 93.9767 88.1702 93.9767C92.3035 93.9767 95.4142 90.8233 95.4142 86.9884V86.9458C95.4142 83.1107 92.3461 80 88.2129 80ZM88.2129 90.6103C86.1675 90.6103 84.7613 88.9058 84.7613 86.9884V86.9458C84.7613 85.0283 86.1249 83.3664 88.1702 83.3664C90.2155 83.3664 91.6217 85.0708 91.6217 87.031C91.6217 88.9485 90.2582 90.6103 88.2129 90.6103Z" fill="black"/>
<path d="M104.32 80C100.186 80 97.0757 83.1533 97.0757 87.031C97.0757 90.8659 100.144 93.9767 104.277 93.9767C108.41 93.9767 111.521 90.8233 111.521 86.9884V86.9458C111.521 83.0681 108.453 80 104.32 80ZM104.362 90.6103C102.317 90.6103 100.911 88.9058 100.911 86.9884V86.9458C100.911 85.0283 102.274 83.3664 104.32 83.3664C106.365 83.3664 107.771 85.0708 107.771 87.031C107.771 88.9485 106.408 90.6103 104.362 90.6103Z" fill="black"/>
<path d="M117.402 80.2985H113.694V93.6785H123.921V90.44H117.402V80.2985Z" fill="black"/>
<path d="M46.6469 99.9736C42.0968 99.9736 38.7411 103.178 38.7411 107.237C38.7411 111.224 42.022 114.5 46.5719 114.5C51.1218 114.5 54.4779 111.224 54.4779 107.237V107.166C54.4779 103.178 51.1953 99.9736 46.6469 99.9736ZM46.6469 111.011C44.4086 111.011 42.9181 109.231 42.9181 107.237V107.166C42.9181 105.172 44.4086 103.463 46.6469 103.463C48.8837 103.463 50.376 105.172 50.376 107.237C50.376 109.231 48.8837 111.011 46.6469 111.011Z" fill="black"/>
<path d="M56.8989 114.5H60.6699V109.312H67.1651V105.977H60.6699V103.531H67.7937V99.9736H56.8989V114.5Z" fill="black"/>
<path d="M83.3412 105.471L80.145 100.272H76.2675V113.695H79.89V106.025L83.2983 111.223H83.3839L86.7504 105.982V113.695H90.458V100.272H86.5372L83.3412 105.471Z" fill="black"/>
<path d="M99.8745 99.9736C95.7418 99.9736 92.6307 103.127 92.6307 107.005C92.6307 110.84 95.6982 113.95 99.8322 113.95C103.965 113.95 107.076 110.797 107.076 106.962V106.919C107.076 103.042 104.008 99.9736 99.8745 99.9736ZM99.8745 110.584C97.8287 110.584 96.4221 108.879 96.4221 106.962V106.919C96.4221 105.002 97.7864 103.34 99.8322 103.34C101.878 103.34 103.283 105.044 103.283 107.005C103.283 108.922 101.919 110.584 99.8745 110.584Z" fill="black"/>
<path d="M107.887 103.511H111.893H111.934V113.652H115.642V103.511H119.647V100.272H107.887V103.511Z" fill="black"/>
<path d="M125.314 100.272H121.564V113.695H125.314V100.272Z" fill="black"/>
<path d="M134.732 99.9736C130.598 99.9736 127.488 103.127 127.488 107.005C127.488 110.84 130.555 113.95 134.689 113.95C138.822 113.95 141.933 110.797 141.933 106.962V106.919C141.933 103.042 138.866 99.9736 134.732 99.9736ZM134.732 110.584C132.686 110.584 131.28 108.879 131.28 106.962V106.919C131.28 105.002 132.644 103.34 134.689 103.34C136.735 103.34 138.141 105.044 138.141 107.005C138.141 108.922 136.777 110.584 134.732 110.584Z" fill="black"/>
<path d="M153.054 100.272V107.346L147.515 100.272H144.062V113.695H147.728V106.323L153.48 113.695H156.719V100.272H153.054Z" fill="black"/>
</svg>
